<?xml version="1.0" encoding="utf-8"?>
<!-- Generator: Adobe Illustrator 25.2.3, SVG Export Plug-In . SVG Version: 6.00 Build 0)  -->
<svg version="1.1" id="Layer_1" xmlns="http://www.w3.org/2000/svg" xmlns:xlink="http://www.w3.org/1999/xlink" x="0px" y="0px"
	 viewBox="0 0 1122.4 669.4" style="enable-background:new 0 0 1122.4 669.4;" xml:space="preserve">
<style type="text/css">
	.st0{fill:#FFFFFF;}
</style>
<g>
	<g>
		<path class="st0" d="M246.7,388.5c-15.8,4.2-31.3,10.4-46.2,16.4c-12.9,5.2-25.4,10.2-38,14c-1.8-8-3-16.2-3.5-24.6
			c16.1-4.3,31.6-10.5,46.8-16.6c14.5-5.8,29.6-11.9,44.6-15.9c25.8-6.9,54.2-7.7,82.2-2.4c22.3,4.3,44.1,12.3,63.7,23.6
			c0-4.3,0-8.6,0-12.9c0-0.8,0-2,0-3.3c-46.6-24.6-101-31.7-149.6-18.7c-15.8,4.2-31.2,10.4-46.2,16.4c-14.2,5.7-28,11.2-41.9,15.2
			c1.2-53.8,28.7-101.2,70.2-129.8l0-15c0-0.6,0-1.3,0-1.9c-50.5,31-84.3,86.7-84.4,150.1c-8,1.5-16.2,2.4-24.5,2.4
			c-0.5,0-1.1,0-1.6,0c0-0.7,0-1.4,0-2.1c0-78.6,45-146.9,110.7-180.4c0-5.2,0-10.6,0-15.9c-22.5,10.5-43.3,25.1-61.4,43.2
			c-40.9,40.9-63.5,95.3-63.5,153.2c0,0.4,0,0.8,0,1.3c-32-3.1-61.5-15.1-83.4-33.8v18c23.3,16.8,52.6,27.4,83.9,30.1
			c0.6,8.9,1.8,17.7,3.5,26.3c-33.5-2.5-64.6-14.6-87.4-34.2v18c24.9,18,56.9,28.8,90.7,30.6c2.4,9,5.4,17.8,8.9,26.3
			c-0.1,0-0.3,0-0.4,0c-37.9-0.2-73.8-12.8-99.2-34.7v18c27,19.5,62.2,30.6,99.1,30.8c0.3,0,0.5,0,0.8,0c2,0,4.1-0.1,6.1-0.1
			c10.3,20.7,24,39.8,40.8,56.6c40.9,40.9,95.3,63.5,153.2,63.5c23.9,0,47.1-3.8,69.1-11.2c-1.7-4.8-1.7-10.1-0.1-15.1
			c-21.5,7.8-44.8,12.1-69,12.1c-77.3,0-144.7-43.6-178.8-107.4c9-1.4,17.8-3.7,26.4-6.3c30.6,52.4,87.4,87.6,152.3,87.6
			c27,0,52.7-6.1,75.6-17c0-5.3,0-10.6,0-15.9c-22.6,11.9-48.3,18.7-75.6,18.7c-58.7,0-110.1-31.3-138.6-78.1
			c8-2.9,15.9-6.1,23.7-9.2c14.5-5.8,29.6-11.9,44.6-15.9c25.8-6.9,54.2-7.7,82.2-2.4c22.3,4.3,44.1,12.3,63.7,23.6
			c0-1.7,0-3.4,0-5.1c0-3.7,0-7.4,0-11.1c-46.6-24.6-101-31.7-149.6-18.7c-15.8,4.2-31.2,10.4-46.2,16.4c-8.5,3.4-16.9,6.8-25.3,9.8
			c-3.5-7.2-6.6-14.7-9-22.4c13.5-4.1,26.7-9.3,39.6-14.5c14.5-5.8,29.6-11.9,44.6-15.9c25.8-6.9,54.2-7.7,82.2-2.4
			c22.3,4.3,44.1,12.3,63.7,23.6c0-5.4,0-10.8,0-16.2C349.7,382.5,295.3,375.5,246.7,388.5z M119.8,399.7c0.3,0,0.5,0,0.8,0
			c8.3,0,16.4-0.8,24.4-2.3c0.7,8.5,2,16.9,3.8,25.1c-8.5,1.9-17.2,3.1-26.1,3.2c-1.8-8.5-3.1-17.2-3.8-26.1
			C119.2,399.7,119.5,399.7,119.8,399.7z M161.7,459.4c-8.6,2.6-17.3,4.6-26.2,5.7c-3.6-8.2-6.7-16.6-9.2-25.3
			c9-0.4,17.7-1.7,26.3-3.7C155,444.2,158.1,451.9,161.7,459.4z"/>
		<path class="st0" d="M410,577.9c-0.4,0.6-0.9,1.3-1.2,1.9C409.1,579.1,409.6,578.5,410,577.9z"/>
	</g>
	<path class="st0" d="M354.1,210.3c1.4,5.5,3.2,10.7,5.5,15.7c5.1,11,12.4,20.8,21.8,29.3c19.6,17.8,43,26.1,65,26.4
		c0.2,0,0.4,0,0.6,0c6.5,0,12.1-0.3,17.1-0.9c5.9-0.7,11.2-1.8,16.3-3.3c3.6-1.1,7.1-2.4,10.5-3.8c4.5-1.9,8.8-4,12.9-6.4
		c0.3-0.2,0.6-0.4,0.9-0.6c14.1-8.4,25.6-20,34.1-35.4c10.1-18,13.4-37.4,9.7-57.8c-4.1-22.9-15.6-41.6-33.9-55.7
		c-3.3-2.5-6.6-4.8-10-6.9c-0.9-0.6-1.8-1.1-2.7-1.6c-24.8-14.4-52-17.3-81-9.2c-8,2.2-15.4,5.3-22.3,9.2
		c-12.9,7.3-23.8,17.4-32.5,30.4c-6.2,9.3-10.5,19.1-12.8,29.3c-1.1,4.6-1.8,9.3-2,14c-0.4,7.2,0.1,14.6,1.5,22.1
		C353.3,207.1,353.7,208.7,354.1,210.3z M428.8,205.9c-1.6-4.2-2.9-8.4-4.1-12.7c-2.4-8.5-4-17.2-4.8-26c-0.8-9.1-0.7-18.2,1.5-27.1
		c0.9-3.5,2.1-6.8,3.9-9.9c3.4-6,8.5-8.7,15.4-8c0.6,0.1,1.2,0.2,1.7,0.4c4.7,2.1,8.9,4.8,12.6,8.4c5.2,5.1,9.5,10.9,13.2,17.2
		c9.5,16.2,15.4,33.6,18.2,52.1c0.8,5.5,1.2,11,1.6,15.1c-0.2,8.5-0.5,15.4-2.5,22.1c-0.4,1.3-0.8,2.5-1.2,3.7
		c-0.8,2.1-1.8,4.1-3.1,5.9c-1.7,2.5-3.8,4.3-6,5.3c-3.3,1.6-7.2,1.6-11.4,0c-2.9-1.1-5.5-2.8-7.9-4.7c-4.6-3.7-8.5-8.1-11.9-12.9
		c-4.6-6.4-8.3-13.3-11.5-20.4C431.1,211.7,429.9,208.8,428.8,205.9z M565.9,155.5c-0.2-6.2,0.7-12.6,2.8-18.9
		c4.9-14.7,15.8-25.4,28.9-32.9c6-3.4,12.5-6.2,19.1-8.4c0,0,0,0,0,0c1-0.3,1.9-0.6,2.9-0.9c0.4-0.1,0.9-0.3,1.3-0.4
		c1.3-0.4,2.6-0.7,4-1.1c0.5-0.1,0.9-0.2,1.4-0.3c0.9-0.2,1.8-0.4,2.7-0.6c0.6-0.1,1.1-0.2,1.7-0.3c0.8-0.2,1.7-0.3,2.5-0.5
		c0.6-0.1,1.2-0.2,1.8-0.3c0.8-0.1,1.6-0.3,2.4-0.4c0.6-0.1,1.3-0.2,1.9-0.2c0.8-0.1,1.6-0.2,2.4-0.3c0.6-0.1,1.3-0.1,1.9-0.2
		c0.8-0.1,1.6-0.1,2.4-0.2c0.7,0,1.3-0.1,2-0.1c0.8,0,1.6-0.1,2.3-0.1c0.7,0,1.3,0,2-0.1c0.8,0,1.6,0,2.3,0c0.7,0,1.5,0,2.2,0
		c0.6,0,1.3,0,1.9,0c0.7,0,1.5,0.1,2.2,0.1c0.6,0,1.3,0.1,1.9,0.1c0.8,0,1.5,0.1,2.3,0.2c0.6,0.1,1.3,0.1,1.9,0.2
		c0.8,0.1,1.5,0.2,2.3,0.3c0.6,0.1,1.2,0.1,1.8,0.2c0.8,0.1,1.5,0.2,2.3,0.3c0.6,0.1,1.2,0.2,1.8,0.3c0.8,0.1,1.6,0.3,2.4,0.5
		c0.5,0.1,1.1,0.2,1.6,0.3c0.9,0.2,1.7,0.4,2.6,0.6c0.5,0.1,0.9,0.2,1.4,0.3c1.2,0.3,2.4,0.7,3.6,1c0.1,0,0.1,0,0.2,0.1
		c7.1,2.2,13.9,5.5,19.5,9.9c3.3,2.5,6.1,5.4,8.5,8.7c5.1,7,7.6,15.5,6,25.2c0,0.2,0,0.4-0.1,0.5c-0.3,1.9-0.9,3.7-1.6,5.3
		c-1.2,2.7-3,5.1-5.1,7.2c-4.3,4.2-9.3,6.9-14.9,8.2c-0.8,0.2-1.7,0.4-2.5,0.5c0,0,0,0,0,0c-0.8,0.2-1.7,0.3-2.5,0.4
		c0,0-0.1,0-0.1,0c-0.8,0.1-1.6,0.2-2.4,0.2c0,0-0.1,0-0.1,0c-0.8,0.1-1.6,0.1-2.4,0.1c-0.2,0-0.4,0-0.6,0c-0.2,0-0.4,0-0.6,0
		c-0.2,0-0.5,0-0.7,0c-0.2,0-0.4,0-0.5,0c-0.2,0-0.5,0-0.7-0.1c-0.2,0-0.4,0-0.5,0c-0.2,0-0.5-0.1-0.7-0.1c-0.2,0-0.3,0-0.5-0.1
		c-0.2,0-0.5-0.1-0.7-0.1c-0.2,0-0.3-0.1-0.5-0.1c-0.2,0-0.5-0.1-0.7-0.2c-0.2,0-0.3-0.1-0.5-0.1c-0.3-0.1-0.5-0.1-0.8-0.2
		c-0.1,0-0.3-0.1-0.4-0.1c-0.4-0.1-0.8-0.2-1.2-0.4c-1.3-0.4-2.5-1-3.7-1.7c-0.4-0.2-0.7-0.5-1-0.7c-1.6-1.2-2.4-2.6-2.6-4.3
		c0-0.1,0-0.1,0-0.2c0,0,0,0,0,0c0-1,0.2-2.2,0.7-3.4c1.1-2.8,2.3-5.6,3.2-8.4c0.1-0.2,0.2-0.5,0.2-0.7c0.1-0.5,0.3-0.9,0.4-1.4
		c0.9-3.4,1.3-6.8,0.6-10.2c-0.5-2.2-1.5-4.5-3.1-6.8c-2.2-3.1-5.3-5.6-8.7-7.4c-0.4-0.2-0.8-0.4-1.2-0.6c-2.9-1.3-6-2.2-9.1-2.6
		c0,0,0,0,0,0c-0.7-0.1-1.4-0.1-2.1-0.2c-0.2,0-0.3,0-0.5,0c-0.7,0-1.4-0.1-2.1-0.1c-0.1,0-0.2,0-0.3,0c-0.7,0-1.4,0-2.1,0.1
		c-0.2,0-0.3,0-0.5,0c-0.8,0-1.5,0.1-2.3,0.2c-0.2,0-0.3,0-0.5,0.1c-0.7,0.1-1.5,0.2-2.2,0.3c-0.1,0-0.1,0-0.2,0
		c-0.8,0.1-1.5,0.3-2.3,0.5c-0.2,0-0.3,0.1-0.5,0.1c-0.7,0.2-1.5,0.4-2.2,0.6c-0.1,0-0.2,0.1-0.3,0.1c-0.7,0.2-1.3,0.5-2,0.7
		c-0.1,0-0.3,0.1-0.4,0.1c-0.7,0.3-1.4,0.6-2,0.9c-0.1,0.1-0.3,0.1-0.4,0.2c-0.7,0.3-1.3,0.7-1.9,1.1c0,0,0,0,0,0
		c-8.8,5.3-11.9,16.6-7.2,26.4c1.2,2.5,2.7,4.7,4.5,6.5c1.4,1.5,3,2.8,4.8,3.8c2,1.2,4,2.3,6,3.3c19.8,9.7,42.5,12.1,62.5,21.8
		c2.1,1,4.2,2.1,6.2,3.3c14.9,8.6,27.6,21.3,30.9,38.2c0.6,3.2,1,6.5,1.3,9.7c1,14.2-1.9,28.4-9.9,40.1c-1.8,2.6-3.8,5.1-6.1,7.4
		c-7.8,7.9-17.2,14.4-27.5,19.4c-14.2,6.8-30,10.5-45.3,10.8c-1,0-1.9,0-2.9,0c-0.6,0-1.2,0-1.8,0c-0.6,0-1.3,0-1.9-0.1
		c-0.6,0-1.2-0.1-1.8-0.1c-0.6,0-1.3-0.1-1.9-0.1c-0.6,0-1.2-0.1-1.8-0.2c-0.6-0.1-1.3-0.1-1.9-0.2c-0.6-0.1-1.2-0.1-1.8-0.2
		c-0.6-0.1-1.3-0.2-1.9-0.3c-0.6-0.1-1.2-0.2-1.8-0.3c-0.2,0-0.4-0.1-0.6-0.1c-0.4-0.1-0.9-0.2-1.3-0.2c-0.6-0.1-1.2-0.2-1.7-0.3
		c-0.6-0.1-1.3-0.3-1.9-0.4c-0.6-0.1-1.1-0.3-1.7-0.4c-0.6-0.2-1.3-0.3-1.9-0.5c-0.6-0.2-1.1-0.3-1.7-0.5c-0.6-0.2-1.3-0.4-1.9-0.6
		c-0.5-0.2-1.1-0.3-1.6-0.5c-0.6-0.2-1.3-0.5-1.9-0.7c-0.5-0.2-1-0.4-1.6-0.6c-0.6-0.3-1.3-0.5-1.9-0.8c-0.5-0.2-1-0.4-1.5-0.6
		c-0.6-0.3-1.3-0.6-1.9-0.9c-0.5-0.2-1-0.5-1.4-0.7c-0.7-0.3-1.3-0.7-1.9-1c-0.4-0.2-0.9-0.5-1.3-0.7c-0.7-0.4-1.3-0.8-2-1.2
		c-0.4-0.2-0.8-0.5-1.2-0.7c-0.7-0.5-1.5-1-2.2-1.5c-0.3-0.2-0.6-0.4-0.9-0.6c-1-0.7-2-1.5-3-2.3c-4.2-3.3-7.8-7.4-10.7-11.8
		c-1.5-2.3-2.8-4.7-3.8-7.2c-2.9-7-3.9-14.6-1.9-21.9c0.6-2.5,1.6-4.9,3-7.3c0.4-0.8,0.9-1.6,1.5-2.3c0,0,0,0,0,0
		c1.3-1.8,2.7-3.4,4.3-4.8c0.1-0.1,0.1-0.1,0.2-0.2c1-0.8,2-1.5,3.1-2.1c0,0,0,0,0,0c0.6-0.3,1.3-0.6,1.9-0.9
		c0.2-0.1,0.5-0.2,0.7-0.3c0.5-0.2,0.9-0.4,1.4-0.5c0.3-0.1,0.6-0.2,0.8-0.3c0.5-0.1,0.9-0.3,1.4-0.4c0.3-0.1,0.6-0.2,0.9-0.2
		c0.5-0.1,1-0.2,1.5-0.3c0.3-0.1,0.6-0.1,0.8-0.2c0.6-0.1,1.2-0.2,1.8-0.3c0.2,0,0.4-0.1,0.6-0.1c0.8-0.1,1.6-0.2,2.4-0.2
		c0.1,0,0.3,0,0.4,0c0.7,0,1.4,0,2.1,0c0.1,0,0.3,0,0.4,0c0.8,0,1.6,0,2.4,0.1c0.1,0,0.1,0,0.2,0c0.8,0.1,1.5,0.1,2.3,0.2
		c0.1,0,0.2,0,0.2,0c0.8,0.1,1.5,0.2,2.3,0.4c0.1,0,0.3,0,0.4,0.1c0.7,0.1,1.5,0.3,2.2,0.5c0.1,0,0.2,0.1,0.3,0.1
		c0.7,0.2,1.5,0.4,2.2,0.7c0,0,0,0,0.1,0c0.7,0.2,1.4,0.5,2,0.8c0.1,0,0.2,0.1,0.3,0.1c0.6,0.3,1.3,0.6,1.8,0.9
		c0.1,0.1,0.2,0.1,0.3,0.2c0.6,0.3,1.2,0.7,1.7,1c0.1,0.1,0.2,0.1,0.2,0.2c0.6,0.4,1.1,0.8,1.6,1.2c1.3,1,2.5,2.2,3.5,3.5
		c1.4,2,1.3,4.6-0.4,6.2c-0.1,0.1-0.2,0.2-0.3,0.3c-3.4,3.4-4.5,7.4-4.8,11.7c0,0.3,0,0.6,0,0.9c0,2.2,0.1,4.4,0.3,6.6
		c0,0.6,0.1,1.2,0.2,1.8c0,0.1,0,0.2,0.1,0.3c0,0.2,0.1,0.4,0.2,0.6c0,0.1,0.1,0.2,0.1,0.4c0.1,0.2,0.1,0.4,0.2,0.6
		c0,0.1,0.1,0.3,0.1,0.4c0.1,0.2,0.1,0.4,0.2,0.5c0.1,0.1,0.1,0.3,0.2,0.4c0.1,0.2,0.1,0.3,0.2,0.5c0.1,0.1,0.1,0.3,0.2,0.4
		c0.1,0.2,0.2,0.3,0.2,0.5c0.1,0.1,0.1,0.3,0.2,0.4c0.1,0.2,0.2,0.3,0.3,0.5c0.1,0.1,0.2,0.3,0.2,0.4c0.1,0.1,0.2,0.3,0.3,0.4
		c0.1,0.1,0.2,0.3,0.3,0.4c0.1,0.1,0.2,0.3,0.3,0.4c0.1,0.1,0.2,0.3,0.3,0.4c0.1,0.1,0.2,0.3,0.3,0.4c0.1,0.1,0.2,0.3,0.3,0.4
		c0.1,0.1,0.2,0.2,0.3,0.4c0.1,0.1,0.2,0.3,0.3,0.4c0.1,0.1,0.2,0.2,0.3,0.4c0.1,0.1,0.2,0.3,0.4,0.4c0.1,0.1,0.2,0.2,0.3,0.3
		c0.1,0.1,0.3,0.2,0.4,0.4c0.1,0.1,0.2,0.2,0.4,0.3c0.1,0.1,0.3,0.2,0.4,0.4c0.1,0.1,0.2,0.2,0.4,0.3c0.1,0.1,0.3,0.2,0.4,0.3
		c0.1,0.1,0.2,0.2,0.4,0.3c0.2,0.1,0.3,0.2,0.5,0.3c0.1,0.1,0.3,0.2,0.4,0.3c0.2,0.1,0.3,0.2,0.5,0.3c0.1,0.1,0.3,0.2,0.4,0.2
		c0.2,0.1,0.3,0.2,0.5,0.3c0.1,0.1,0.3,0.1,0.4,0.2c0.2,0.1,0.3,0.2,0.5,0.3c0.1,0.1,0.3,0.1,0.4,0.2c0.2,0.1,0.4,0.2,0.5,0.3
		c0.1,0.1,0.3,0.1,0.4,0.2c0.2,0.1,0.4,0.2,0.5,0.2c0.1,0.1,0.3,0.1,0.4,0.2c0.2,0.1,0.4,0.2,0.6,0.2c0.1,0.1,0.3,0.1,0.4,0.1
		c0.2,0.1,0.4,0.1,0.6,0.2c0.1,0,0.3,0.1,0.4,0.1c0.2,0.1,0.4,0.1,0.6,0.2c0.1,0,0.3,0.1,0.4,0.1c0.2,0.1,0.4,0.1,0.6,0.2
		c0.1,0,0.3,0.1,0.4,0.1c0.2,0,0.4,0.1,0.6,0.1c0.1,0,0.3,0.1,0.4,0.1c0.2,0,0.4,0.1,0.6,0.1c0.1,0,0.3,0,0.4,0.1
		c0.2,0,0.4,0.1,0.6,0.1c0.1,0,0.3,0,0.5,0c0.2,0,0.4,0,0.6,0.1c0.2,0,0.3,0,0.5,0c0.2,0,0.4,0,0.6,0c0.2,0,0.3,0,0.5,0
		c0.2,0,0.4,0,0.7,0c0,0,0,0,0,0c10.5-0.1,21.5-7,26.2-16c0,0,0,0,0,0c3.7-6.9,3.5-15.1-3.6-22.3c-1-1-2.1-2-3.3-2.9
		c-1-0.7-1.9-1.4-3-2.1c-16.1-9.8-35.2-12.8-52.3-20.3C587.8,206.7,566.7,182.5,565.9,155.5z M733.4,132.1c0.6-0.7,1.3-1.3,2-1.8
		c0.3-0.2,0.6-0.4,1-0.6c7.9-4.2,14.3-10.2,21-15.9c1.6-1.3,3.1-2.7,4.6-4.1c10.6-9.8,20-20.8,29-32c7.8-9.7,15.1-19.8,22.7-29.7
		c1.6-2,3.3-3.9,5-5.8c0.6-0.7,1.4-1.3,2.2-1.8c5-3.3,10.5-0.7,11.1,5.3c0.7,7.5,1.6,15,0.3,22.5c-0.2,1.4-0.2,2.9-0.2,4.3
		c0.2,12,0.5,24,0.8,36c0,1.1,0.2,2.2,0.3,3.1c1.6,1.2,3.2,0.8,4.8,0.9c7.7,0.2,15.3,0.4,23,0.6c2.1,0.1,4.2,0.1,6.2,0.3
		c2.4,0.2,3.4,1.3,3.7,3.6c0,0.2,0.1,0.3,0,0.5c-0.2,5.4-0.3,10.9-0.5,16.3c-0.1,2.5-1.4,3.9-3.7,4.3c-3.1,0.5-6.3,1.1-9.5,1.2
		c-6.4,0.3-12.8,0.2-19.2,0.3c-1.6,0-3.2-0.4-5,1c0,1.5-0.1,3.2-0.1,4.9c0.2,15.7,0.5,31.3,0.7,47c0.1,4.2,0.1,16.2,0.1,29.8
		c0,20.2,0.1,43.9,0.2,50.1c0.2,7.4,0.4,14.9,0.8,22.3c0.2,3.3,0.4,6.5,0.7,9.8c0.7,7,5.8,11.5,11.7,12.8c2.3,0.5,4.5,0.3,6.6-0.5
		c1.6-0.6,3.2-1.5,4.8-2.1c1.9-0.8,3.8-1.6,5.8-2.1c1.2-0.3,2.6-0.3,3.8,0c3.5,0.8,4.9,3.6,3.5,6.9c-0.5,1.2-1.2,2.3-1.8,3.4
		c-3.5,5.8-7.8,11-13.3,15c-7.5,5.5-15.7,9.9-24.6,12.7c-19.2,6-36.3,1.6-51.7-10.6c-7.2-5.7-11.1-12.7-13.3-20.4
		c-3.2-11.4-2.6-24.2-2.8-36.3c-0.1-3.2,0-6.4-0.1-9.6c-0.2-26.9,0.3-102.5,1-129.3c0-1.1-0.1-2.2-0.2-3.9c-1.2,0-2.3,0-3.3-0.1
		c-1.3,0-2.6,0-3.9,0c-6.6,0-13.1-0.1-19.6-1c-1.2-0.2-2.4-0.4-3.5-0.9c-0.2-0.1-0.4-0.2-0.6-0.3C732.1,137,731.6,134,733.4,132.1z
		 M997.4,341.3l-5.5,2.5c-14.4,6.4-25.8,18.2-31.6,32.9l-3.4,8.7c-1.9,4.9-8.9,4.9-10.8,0l-3.1-7.8c-6-15.3-17.8-27.6-32.8-34.2
		l-4.9-2.2c-4.6-2-4.6-8.6,0-10.6l4.9-2.2c5.2-2.3,10-5.3,14.3-8.8c8.2-6.7,14.6-15.4,18.5-25.4l3.1-7.8c1.9-4.9,8.9-4.9,10.8,0
		l3.4,8.7c3.8,9.6,10,18,17.9,24.5c4.1,3.4,8.7,6.2,13.7,8.4l5.5,2.5C1002.2,332.5,1002.2,339.2,997.4,341.3z M898,570.8
		c-3.6-3.1-6-6.9-7.3-11.5c-1.5-5.6-2.8-11.2-2.8-17c0-5-0.1-9.9-0.1-14.9c0.2-10.9,0.6-21.8,0.6-32.6c0-18.2,0.6-29.4-1.4-47.5
		c-1.5-13.1-5.1-26.4-13.2-36.8c-25.2-32.6-74.5-40.6-111.8-24.8c-10.1,4.3-19.3,10.3-27,18c-13,13.2-17,36-3.9,50.6
		c6.4,7.1,15.8,10.7,25.4,10.1c1.9-0.1,3.7-0.4,5.5-0.9c6.7-1.7,12.3-5.7,17.2-10.9c2.8-3,3-5.5,0.8-9.1c-1.1-1.9-2.5-3.7-3.6-5.6
		c-3.2-5.7-4.3-11.8-2.5-18c1.5-5.1,4.3-9.6,8.6-13c7.1-5.6,15.2-7.3,23.7-5.3c6.3,1.5,11.2,5.3,13.2,11.9c1,3.4,2,6.7,2.5,10.2
		c0.8,5.5,1.2,11.1,1.5,16.7c0.2,3.3,0.3,14.1-0.1,17.3c-0.7,0.4-1,0.7-1.5,0.9c-9.4,3.3-18.9,6.4-28.3,9.8
		c-11,4-21.6,8.8-31.6,14.9c-3.6,2.2-7.1,4.5-10.5,7c-2.8,2-5.4,4.1-8,6.4c-2.8,2.5-5.5,5.1-7.9,8c-12.9,15.5-14.9,46.6-3,63.2
		c7.8,11,19.8,16.1,32.9,17c20.4,1.4,39.2-3.5,56.9-13.7c1.1-0.6,2.2-1.2,3.5-1.9c0.6,1.1,1.2,2.1,1.7,3c2.4,4.8,6,8.3,11,10.1
		c2.7,1,5.4,1.8,8.2,2.4c4.8,1.2,9.7,1.2,14.6,1.1c7.4-0.3,14.9-0.6,22.3-1.1c4.3-0.3,8.5-1.1,12.7-1.7c3-0.4,4.8-2.1,5.8-4.9
		c0.5-1.5,0.4-2.9-0.6-4C900.4,573,899.2,571.9,898,570.8z M822.4,488.8c-0.9,13.7-1,30.7-0.7,44.5c0.1,2.9,0.1,5.8,0.2,8.6
		c0.1,1.6-0.5,2.8-1.7,3.7c-2.2,1.6-4.2,3.5-6.5,4.8c-6.8,3.8-15.3,3.1-20.2-5.1c-1.3-2.1-2.4-4.6-2.9-7c-3-13.4-1.7-29.6,4.4-42
		c1.4-2.9,3.3-5.4,5.7-7.6c6-5.6,12.9-9.8,20.6-12.6c0.3-0.1,0.6,0,1.6,0C822.7,480.5,822.7,484.7,822.4,488.8z M1100.3,580.5
		c-0.1,0.1-0.1,0.3-0.2,0.4c-3.5,0.3-7,0.9-10.5,0.9c-21.9,0-43.8,0-65.7-0.1c-1.7,0-3.5-0.2-5.2-0.7c-0.3-0.1-0.5-0.2-0.7-0.3
		c-2.2-1-2.7-3.1-1.4-5.4c0.6-1.1,1.4-2.1,2.2-3.1c1.9-2.3,2.9-4.9,3.5-7.8c0.7-3.6,1.1-7.2,1.1-11c0-0.2,0-0.3,0-0.5
		c-0.1-57.6-0.2-138.6-0.1-196.2c0-12.5,0.3-14.9,0.6-27.4c0.1-2.1-0.3-3.9-1.1-5.5c-0.6-1.2-1.5-2.3-2.7-3.4
		c-0.3-0.3-0.6-0.6-0.9-0.9c-1.1-1.2-1.7-2.4-1.8-3.4c0,0,0,0,0,0c0-0.7,0.1-1.3,0.5-1.8c0.1-0.1,0.2-0.2,0.2-0.3
		c0-0.1,0.1-0.1,0.1-0.2c0.7-0.8,1.9-1.6,3.4-2.2c1-0.4,2.1-0.7,3.2-0.9c3.6-0.9,7.2-1.8,10.7-2.9c7.9-2.4,15.6-5.2,23.1-8.5
		c0.1,0,0.2-0.1,0.2-0.1c4.2-1.9,8.4-4,12.5-6.2c1.4-0.7,2.8-1.4,4.2-2.1c2.1-1.1,4.4-2,6.5-3c0.1,0,0.2-0.1,0.2-0.1
		c0.8-0.3,1.6-0.7,2.4-0.9c0.2-0.1,0.5-0.1,0.7-0.2c0,0,0.1,0,0.1,0c0.1,0,0.3-0.1,0.4-0.1c0.1,0,0.2-0.1,0.4-0.1
		c0.1,0,0.2,0,0.4-0.1c0.1,0,0.3,0,0.4-0.1c0.1,0,0.2,0,0.3,0c0.1,0,0.3,0,0.4,0c0,0,0.1,0,0.1,0c0.3,0,0.5,0,0.8,0.1
		c0.1,0,0.1,0,0.2,0c0.3,0,0.5,0.1,0.8,0.2c0,0,0,0,0.1,0c0.2,0.1,0.4,0.2,0.6,0.3c0.1,0,0.1,0.1,0.2,0.1c0.2,0.1,0.4,0.3,0.6,0.5
		c0,0,0,0,0,0c0.2,0.2,0.3,0.4,0.5,0.6c0,0.1,0.1,0.1,0.1,0.2c0.2,0.2,0.3,0.5,0.4,0.8c0,0,0,0,0,0.1c0.1,0.3,0.2,0.6,0.4,0.9
		c0,0.1,0.1,0.2,0.1,0.3c0.1,0.3,0.2,0.7,0.3,1c0,0,0,0,0,0c0.1,0.5,0.2,1,0.3,1.6c0.3,1.8,0.5,3.7,0.6,5.5c0.1,2.3,0.2,4.5,0.2,6.5
		c0,1,0.1,2,0.1,3c0.1,3.2,0.2,6.1,0.3,8.9c0,0.2,0,0.4,0,0.6c0,0.7,0,1.4,0.1,2.1c0.3,11.2,0.3,19.8,0.2,34.7c0,1.5,0,3.1,0,4.8
		c0,44.1-0.1,120.8-0.2,164.9c0,10.1-0.3,20.1-0.5,30.2c0,1.1,0,2.2,0.1,3.3c0.3,4.7,1.4,9.1,4.2,13.1c0.4,0.5,0.7,1.1,1,1.6
		C1101.4,574.7,1101.9,577.3,1100.3,580.5z M997.5,572.5c1.7,2.6,2.2,5.3-0.1,8.4c-3.2,0.3-6.7,0.9-10.1,0.9c-22,0-44.1,0-66.1-0.1
		c-1.6,0-3.2-0.2-4.7-0.6c-2.8-0.9-3.7-3-2.4-5.6c0.3-0.7,0.8-1.4,1.3-2c4.4-4.6,5-10.5,5.6-16.5c0.2-1.7,0-3.5,0-5.3
		c-0.1-21.7-0.2-36-0.1-57.8c0-8.5,0.1-42.3,0.6-50.8c0.4-5.3-1.6-9.7-4.1-13.9c-0.4-0.7-1-1.3-1.4-1.9c-1.5-2.4-1.1-4.6,1.4-6.1
		c1.5-0.9,3.2-1.4,4.9-1.8c11.5-2.8,22.7-6.6,33.6-11.2c2.8-1.2,5.4-2.7,8.2-4c5.3-2.6,10.6-5.2,16-7.6c1.6-0.7,3.3-1.2,5-1.5
		c2.5-0.3,4.5,0.7,5.3,3.2c0.7,2.2,1.2,4.7,1.3,7c0.4,5.6,0.6,11.2,0.6,16.8c0.2,20.6,0.3,59.2,0.3,79.8c0,17.7-0.3,35.5-0.5,53.2
		c-0.1,5.7,1,11.1,4.3,15.9C996.8,571.4,997.1,572,997.5,572.5z M751.6,610.1c0.1,1,0,2-0.4,3.1c-0.1,0.3-0.2,0.6-0.4,0.9
		c-0.4,1-1,1.9-1.6,2.8c-0.3,0.5-0.7,1-1.1,1.5c-1.4,1.8-3.1,3.3-5,4.6c-0.3,0.2-0.6,0.4-1,0.6c-0.7,0.4-1.3,0.8-1.9,1.2
		c-0.6,0.4-1.2,0.7-1.8,1c-3.9,2.3-7,3.8-11.3,4.6c-1.3,0.2-2.7,0.4-4.3,0.6c-1,0.1-2.1,0.1-3.1,0.2c-0.2,0-0.4,0-0.7,0
		c-1,0-2,0.1-3,0.1c-0.1,0-0.3,0-0.4,0c-1.3,0-2.5,0-3.8-0.1c-0.1,0-0.1,0-0.2,0c-1.3-0.1-2.6-0.2-3.9-0.3c0,0,0,0,0,0
		c-1.3-0.1-2.5-0.3-3.8-0.5c-0.1,0-0.2,0-0.2,0c-1.2-0.2-2.4-0.4-3.6-0.6c-0.1,0-0.2,0-0.4-0.1c-1.2-0.2-2.3-0.5-3.5-0.8
		c-0.1,0-0.3-0.1-0.4-0.1c-1.1-0.3-2.2-0.6-3.4-0.9c-0.2,0-0.3-0.1-0.5-0.1c-1.1-0.3-2.2-0.7-3.3-1.1c-0.2-0.1-0.3-0.1-0.5-0.2
		c-1.1-0.4-2.2-0.8-3.2-1.2c-0.1-0.1-0.3-0.1-0.4-0.2c-1.1-0.4-2.1-0.9-3.2-1.4c-0.1-0.1-0.3-0.1-0.4-0.2c-1.1-0.5-2.1-1-3.2-1.6
		c-0.1,0-0.2-0.1-0.3-0.1c-1.1-0.6-2.1-1.1-3.2-1.8c0,0-0.1-0.1-0.1-0.1c-2.2-1.3-4.3-2.6-6.3-4.1c-0.1,0-0.1-0.1-0.2-0.1
		c-1-0.7-2-1.4-2.9-2.2c-0.1-0.1-0.2-0.1-0.3-0.2c-0.9-0.7-1.8-1.5-2.7-2.2c-0.1-0.1-0.2-0.2-0.3-0.3c-0.9-0.7-1.7-1.5-2.6-2.3
		c-0.1-0.1-0.2-0.2-0.3-0.3c-0.8-0.8-1.7-1.6-2.5-2.4c-0.1-0.1-0.2-0.2-0.3-0.3c-0.8-0.8-1.6-1.6-2.4-2.5c-0.1-0.1-0.2-0.2-0.3-0.4
		c-0.8-0.9-1.5-1.7-2.3-2.6c-0.1-0.1-0.2-0.2-0.3-0.3c-0.8-0.9-1.5-1.8-2.2-2.8c-0.1-0.1-0.1-0.2-0.2-0.3c-0.7-1-1.5-1.9-2.2-2.9
		c0,0-0.1-0.1-0.1-0.1c-1.2-1.8-2.4-3.6-3.5-5.4c-0.2-0.3-0.4-0.7-0.6-1c0-0.1-0.1-0.1-0.1-0.2c-0.6-1.1-1.2-2.1-1.8-3.2
		c-0.1-0.1-0.1-0.2-0.2-0.3c-0.6-1.1-1.1-2.1-1.6-3.2c-0.1-0.1-0.1-0.3-0.2-0.4c-0.5-1.1-1-2.1-1.4-3.2c-0.1-0.2-0.1-0.3-0.2-0.5
		c-0.4-1.1-0.9-2.2-1.3-3.2c-0.1-0.2-0.1-0.3-0.2-0.5c-0.4-1.1-0.8-2.2-1.1-3.3c-0.1-0.2-0.1-0.3-0.2-0.5c-0.4-1.1-0.7-2.3-1-3.4
		c0-0.1-0.1-0.3-0.1-0.4c-0.3-1.2-0.6-2.3-0.9-3.5c0-0.1-0.1-0.2-0.1-0.4c-0.3-1.2-0.5-2.4-0.7-3.7c0-0.1,0-0.1,0-0.2
		c-0.2-1.3-0.4-2.6-0.6-3.9c-0.2-1.4-0.3-2.7-0.4-4.1c-0.2-2.3-0.3-4.6-0.7-6.8c-1.2-7.1-1.2-14.3-1-21.4c0.1-3.4,0.2-6.8,0.1-10.1
		c0-5.1,0-9.8,0-14.3c0-14.4,0.1-26.6,0.2-42.4c0-1.1,0-2.1,0-3.2c0-2.7,0.1-5.4,0.2-8.2c0.1-2.7,0.2-5.4,0.2-8.2
		c0.1-6.3,0.1-12.6,0.1-19c0-3,0-5.9,0-8.9c0-0.2,0-0.3-0.1-0.5c-0.1-0.2-0.1-0.3-0.2-0.5c0-0.1-0.1-0.2-0.1-0.3c0,0,0,0,0,0
		c-0.1,0-0.2,0-0.3,0c-0.1,0-0.2,0-0.3,0c-0.1,0-0.1,0.1-0.2,0.1c-0.1,0-0.1,0-0.2,0.1c-0.1,0-0.1,0.1-0.2,0.1c0,0-0.1,0.1-0.1,0.1
		c-0.1,0.1-0.1,0.1-0.1,0.2c0,0-0.1,0.1-0.1,0.1c0,0.1-0.1,0.1-0.1,0.2c0,0-0.1,0.1-0.1,0.1c0,0.1-0.1,0.1-0.1,0.2
		c-0.1,0.3-0.2,0.6-0.4,0.9c-5.5,10.3-11,20.6-16.5,30.9c-10.2,19.3-17.8,38.6-27.1,57.8c-2.1,4.4-4.4,8.9-6.7,13.3
		c-1.7,3.3-3.7,6.4-5.6,9.6c-0.6,0.9-1.1,1.9-1.6,2.9c-1.1,2-2.1,4-3.2,6c-3,5.8-6,11.6-9,17.4c-0.5,1-1,2-1.6,3
		c-0.4,0.6-0.8,1.3-1.3,1.9c-0.7,0.9-1.5,1.7-2.4,2.4c-1.2,0.2-2.4,0.3-3.6,0.5c-0.4,0.1-0.8,0.1-1.2,0.2c0,0,0,0,0,0
		c-0.3,0-0.7,0.1-1,0.1c0,0,0,0,0,0c-0.2,0-0.3,0-0.5,0h0c-0.1,0-0.1,0-0.2,0c-0.5,0-0.9-0.1-1.4-0.3c0,0,0,0,0,0
		c-0.1,0-0.1,0-0.2-0.1c0,0,0,0,0,0c-0.2-0.1-0.3-0.1-0.5-0.2c-0.1,0-0.1-0.1-0.2-0.1l0,0c-0.1-0.1-0.3-0.1-0.4-0.2
		c-0.1,0-0.1-0.1-0.2-0.1c-0.1-0.1-0.3-0.2-0.4-0.3c-0.1,0-0.1-0.1-0.2-0.1c-0.2-0.2-0.4-0.3-0.6-0.5c-1-1-1.9-2.1-2.8-3.3
		c-3.5-4.8-6.8-9.9-9.8-15c-1-1.7-2-3.5-2.9-5.3c-3-5.6-5.9-11.2-8.9-16.8c-2.6-4.9-5.2-9.8-7.8-14.8c-0.5-0.9-1-1.8-1.4-2.7
		c-0.8-1.6-1.7-3.1-2.5-4.7c-1.8-3.4-3.6-6.8-5.4-10.3c-0.1-0.2-0.2-0.3-0.3-0.5c-3-5.6-5.9-11.2-8.9-16.8
		c-1.9-3.6-3.8-7.3-5.6-10.9c-0.2-0.3-0.3-0.6-0.5-0.9c-2.9-5.9-5.8-11.8-8.6-17.8c-3.8-8-7.7-16-11.8-24c-0.8-1.5-1.5-3-2.3-4.5
		c-0.5-0.9-0.9-1.9-1.4-2.8c-0.4-0.7-0.9-1.4-1.5-1.9c-0.1,0-0.2,0.1-0.3,0.1c-0.2,0.1-0.3,0.2-0.4,0.3c-0.2,0.2-0.2,0.5-0.2,0.8
		c0,0.1,0,0.2,0,0.3c0,3.7,0,7.4,0,11c0,12.7,0,24.9,0,36.9c0,6,0,11.9,0,17.8c0,1.4,0,2.8,0,4.2c0,1.6,0,3.1,0,4.7
		c0,6,0,11.9,0,17.9c0,0.5,0,1,0,1.6c0,12.5,0,25.1,0,38c0,6.2,0,12.5,0,18.9c0,1.6,0,3.2,0,4.8c0,0.7,0,1.4,0,2
		c0,1.6,0.1,3.2,0.4,4.8c0.1,0.4,0.2,0.8,0.3,1.2c0.2,0.6,0.3,1.3,0.5,1.9c0.4,1.4,1,2.8,1.7,4.1c0.7,1.3,1.5,2.6,2.5,3.8
		c0.3,0.4,0.7,0.8,1,1.3c0.7,1,1.3,2,1.9,3.1c0.1,0.2,0.1,0.3,0.2,0.5c0.2,0.8,0,1.7-0.6,2.2c-0.2,0.2-0.5,0.4-0.8,0.6
		c-0.1,0.1-0.3,0.1-0.4,0.2c-1.2,0.5-2.5,0.9-3.8,1.1c-0.3,0-0.5,0.1-0.8,0.1c-1.9,0.2-3.9,0.4-5.9,0.6c-0.3,0-0.6,0-1,0.1
		c-1.2,0.1-2.5,0.1-3.7,0.2c-11.3,0.2-22.7,0.2-34,0.3c0,0-0.1,0-0.1,0c-0.2,0-0.5,0-0.7,0c-0.1,0-0.2,0-0.3,0c-0.2,0-0.4,0-0.6,0
		c0,0,0,0,0,0c-0.1,0-0.2,0-0.3,0c-0.2,0-0.4,0-0.6,0c0,0,0,0,0,0c-0.1,0-0.2,0-0.3,0c-0.3,0-0.6-0.1-0.8-0.1c0,0,0,0,0,0
		c-1.5-0.3-2.4-1.3-2.6-2.6c0-0.1,0-0.2,0-0.3c0-0.5,0.1-1,0.3-1.5c0.3-0.7,0.8-1.3,1.2-1.9c0,0,0-0.1,0.1-0.1
		c0.1-0.2,0.2-0.3,0.3-0.5c0.8-1.2,1.6-2.4,2.5-3.7c0.3-0.5,0.6-0.9,0.9-1.4c0,0,0,0,0-0.1c0,0,0,0,0,0c1.6-3,2.4-6.2,2.5-9.7
		c0-0.2,0-0.3,0-0.5c0-0.4,0-0.8,0-1.2c0-9.8,0-19.5,0-29.2c0-5.8,0-11.5,0-17.2c0-0.6,0-1.1,0-1.7c0-2.4,0-4.8,0-7.2
		c0-11.3,0-22.5,0-33.8c0-4.1,0-8.2,0-12.3c0-9.3,0-18.6,0-28c0-4.1,0-8.2,0-12.3c0-8.2,0-16.5,0-24.8c0-1,0-2.1,0-3.1
		c0-4.1,0-8.2,0-12.3c0-2.9,0-5.8,0-8.7c0-0.9,0-2.3,0-3.8c0-0.5,0-1,0-1.5c0-0.1,0-0.1,0-0.2c0-0.2,0-0.3,0-0.5c0-0.1,0-0.2,0-0.2
		c0-0.1,0-0.3,0.1-0.4c0-0.1,0-0.2,0.1-0.3c0-0.1,0.1-0.3,0.1-0.4c0-0.1,0.1-0.2,0.1-0.3c0-0.1,0.1-0.3,0.1-0.4
		c0-0.1,0.1-0.2,0.1-0.3c0.1-0.1,0.1-0.2,0.2-0.3c0-0.1,0.1-0.2,0.2-0.2c0.1-0.1,0.1-0.2,0.2-0.3c0-0.1,0.1-0.1,0.2-0.2c0,0,0,0,0,0
		c0.1-0.1,0.1-0.2,0.2-0.3c0.1-0.1,0.1-0.1,0.2-0.2c0.1-0.1,0.2-0.2,0.3-0.3c0.1-0.1,0.1-0.1,0.2-0.2c0.1-0.1,0.2-0.2,0.3-0.2
		c0,0,0,0,0.1-0.1c0.1,0,0.1-0.1,0.2-0.1c0.1-0.1,0.2-0.1,0.3-0.2c0.1-0.1,0.2-0.1,0.3-0.2c0.1-0.1,0.2-0.1,0.3-0.2
		c0.1,0,0.2-0.1,0.3-0.1c0.1-0.1,0.2-0.1,0.3-0.2c0.1,0,0.2-0.1,0.3-0.1c0.1,0,0.2-0.1,0.3-0.1c0.1,0,0.2-0.1,0.3-0.1
		c0.1,0,0.2-0.1,0.3-0.1c0.1,0,0.2,0,0.3-0.1c0.1,0,0.2,0,0.4,0c0.1,0,0.2,0,0.4,0c0.1,0,0.3,0,0.4,0c0,0,0,0,0,0
		c1.9,0.1,3.9,0.1,5.9,0.2c1.5,0,3,0.1,4.5,0.1c0.4,0,0.8,0,1.2,0c1.6,0,3.2,0.1,4.8,0.1c0,0,0,0,0,0c0.2,0,0.3,0,0.5,0
		c1.5,0,3,0,4.6,0c0.3,0,0.7,0,1,0c0.8,0,1.6,0,2.4,0c0.4,0,0.8,0,1.2,0c1.2,0,2.3,0,3.5-0.1c0.3,0,0.6,0,0.8,0c0,0,0,0,0,0
		c0,0,0,0,0,0c0.9,0,1.8-0.1,2.7-0.1c0.2,0,0.4,0,0.6,0c0.2,0,0.4,0,0.6,0h0c0.8,0,1.5-0.1,2.3-0.1c0.5,0,0.9-0.1,1.4-0.1
		c0,0,0,0,0,0c0.7-0.1,1.5-0.1,2.2-0.2c0.5,0,0.9-0.1,1.4-0.1c0.8-0.1,1.5-0.1,2.2-0.2c0.4,0,0.9-0.1,1.3-0.1
		c0.8-0.1,1.6-0.2,2.5-0.3c0.3,0,0.5-0.1,0.8-0.1c0.1,0,0.2,0,0.3,0c0,0,0,0,0,0c1.2-0.2,2.4-0.4,3.5-0.6c1.6-0.3,3.3-0.5,4.9-0.8
		c4.6-0.7,9.4-1.5,13.9-2.8c2.9-0.8,5.7-1.9,8.3-3.4c0,0,0,0,0,0c0.2-0.1,0.5-0.2,0.7-0.4c0.1,0,0.2-0.1,0.2-0.1
		c0.2-0.1,0.4-0.1,0.5-0.2c0.1,0,0.2,0,0.3-0.1c0.1,0,0.2,0,0.3-0.1c0.1,0,0.2,0,0.2,0c0.1,0,0.2,0,0.3,0c0.2,0,0.4,0,0.6,0
		c0.1,0,0.1,0,0.2,0c0.3,0,0.6,0,0.8,0.1c0.1,0,0.2,0,0.2,0c0.2,0,0.4,0.1,0.6,0.1c0.1,0,0.2,0,0.2,0.1c0.3,0.1,0.5,0.2,0.8,0.3
		c0,0,0.1,0,0.1,0.1c0.2,0.1,0.4,0.2,0.7,0.3c0.1,0,0.1,0.1,0.2,0.1c0.2,0.1,0.4,0.3,0.6,0.4c0,0,0.1,0.1,0.1,0.1
		c0.2,0.2,0.4,0.4,0.6,0.6c0,0.1,0.1,0.1,0.1,0.2c0.1,0.2,0.3,0.4,0.4,0.5c0,0.1,0.1,0.1,0.1,0.2c0.2,0.2,0.3,0.5,0.4,0.8
		c0,0,0,0,0,0c0,0,0,0,0,0.1c0.9,2,1.9,3.9,2.8,5.9c2.7,5.4,5.3,10.6,8,15.5c4.7,8.8,9.3,16.9,13.9,25c8.2,14.4,16.5,28.5,25.4,45.4
		c0.7,1.4,1.5,2.8,2.4,4.3c0.1,0,0.1,0,0.2-0.1c1.4-0.5,1.8-1.6,2.3-2.6c0,0,0,0,0,0c0.1-0.1,0.1-0.3,0.2-0.4
		c9-15.7,14.8-32.4,23.7-48.2c8.6-15.3,22.8-49.1,31.4-64.4c0.2-0.4,1.7-3,2.2-3.9c0.1-0.1,0.1-0.2,0.1-0.3c0.4-1,0.9-1.7,1.6-2.3
		c0.2-0.1,0.3-0.3,0.5-0.4c1.2-0.9,2.6-1.3,4.2-1.5c0.1,0,0.1,0,0.2,0c0,0,0,0,0,0c0.8-0.1,1.6-0.2,2.4-0.2c0.6-0.1,1.2-0.1,1.8-0.2
		c0.3,0,0.5,0,0.8-0.1c0.5,0,0.9-0.1,1.4-0.1c0.3,0,0.6,0,0.9,0c0.6,0,1.1,0,1.7,0c0,0,0,0,0,0c0.2,0,0.5,0,0.7,0c0,0,0.1,0,0.1,0
		c0.7,0,1.4,0,2.1,0.1c0,0,0,0,0,0c0.1,0,0.2,0,0.3,0c0.3,0,0.6,0,0.9,0c0.6,0,1.1,0,1.7,0c0,0,0,0,0,0c0.8,0,1.6,0,2.3,0
		c0,0,0,0,0,0c0,0,0.1,0,0.1,0c0.8,0,1.6,0,2.4-0.1c0,0,0,0,0,0c0.2,0,0.4,0,0.6,0c0.4,0,0.9,0,1.3-0.1c0.1,0,0.3,0,0.4,0
		c0,0,0,0,0,0c0.3,0,0.6,0,0.8,0c0,0,0,0,0,0c0.5,0,1-0.1,1.5-0.1c0,0,0,0,0,0c0.3,0,0.6,0,0.9-0.1c0.5,0,1-0.1,1.4-0.1
		c0.3,0,0.6-0.1,0.9-0.1c0.5,0,1-0.1,1.4-0.2c0.3,0,0.5-0.1,0.8-0.1c0,0,0,0,0,0c0.6-0.1,1.1-0.1,1.6-0.2c0,0,0,0,0,0
		c0.2,0,0.4,0,0.5-0.1c0.7-0.1,1.5-0.2,2.2-0.4c0.1,0,0.3-0.1,0.4-0.1c0,0,0,0,0,0c0.6-0.1,1.2-0.2,1.8-0.3c0,0,0,0,0,0
		c0.2,0,0.5-0.1,0.8-0.2c0,0,0,0,0,0c0.5-0.1,1-0.2,1.4-0.3c0,0,0,0,0,0c0.3-0.1,0.6-0.1,0.8-0.2c0,0,0,0,0,0
		c0.5-0.1,0.9-0.2,1.4-0.3c0,0,0,0,0,0c0.3-0.1,0.6-0.1,0.9-0.2c0.2-0.1,0.5-0.1,0.7-0.2c0.2-0.1,0.5-0.1,0.7-0.2h0
		c0.3-0.1,0.6-0.2,0.9-0.2c0.4-0.1,0.8-0.2,1.2-0.3c0.1,0,0.2-0.1,0.4-0.1c0.3-0.1,0.5-0.1,0.8-0.2c0.7-0.2,1.4-0.4,2.1-0.6
		c0.1,0,0.1,0,0.2-0.1c0.1,0,0.2-0.1,0.2-0.1c0.2-0.1,0.4-0.1,0.5-0.2c0.1,0,0.3-0.1,0.5-0.2c0.1,0,0.3-0.1,0.4-0.1
		c0.2-0.1,0.4-0.1,0.6-0.2c0,0,0.1,0,0.1,0c0.4-0.1,0.8-0.3,1.1-0.4c0.1,0,0.2-0.1,0.3-0.1c0.3-0.1,0.6-0.2,0.9-0.3
		c0.1,0,0.1,0,0.2-0.1c0.3-0.1,0.7-0.2,1-0.3c0.1,0,0.2-0.1,0.3-0.1c0.2-0.1,0.5-0.2,0.7-0.2c0.1,0,0.3-0.1,0.4-0.1
		c0.2-0.1,0.4-0.1,0.7-0.2c0.1,0,0.3-0.1,0.4-0.1c0.2-0.1,0.4-0.1,0.6-0.2c0.1,0,0.3-0.1,0.4-0.1c0.2-0.1,0.5-0.1,0.7-0.2
		c0.1,0,0.2,0,0.3-0.1c0.3-0.1,0.7-0.1,1-0.2c0.1,0,0.2,0,0.2,0c0.3,0,0.5-0.1,0.8-0.1c0.1,0,0.2,0,0.4,0c0.2,0,0.4,0,0.6,0
		c0.1,0,0.3,0,0.4,0c0.2,0,0.3,0,0.5,0c0.3,0,0.5,0,0.8,0c0.1,0,0.2,0,0.3,0c0.4,0,0.7,0.1,1,0.2c2.5,0.7,3.4,1.7,3.6,4.3
		c0.1,1.2,0.1,2.5,0.1,3.5c0,0.8,0,1.4,0,1.9c0,0.4,0,0.6,0,0.6c-0.2,1-0.2,2-0.2,3.1c0,0,0,0.1,0,0.1c0,0.4,0,0.9,0,1.3
		c0,0.6,0,1.1,0,1.7c-0.4,10-0.5,22.8-0.6,35.7c0,0.9,0,1.9,0,2.8c0,0.9,0,1.9,0,2.8c-0.1,13.1-0.1,26-0.1,36.2
		c0,23.8-0.1,44-0.2,65.5c0,7.1-0.1,14.4-0.1,22c0,2.8,0,5.6,0,8.5c0,2,0,4,0,6c0,2,0,4,0,6c-0.2,8.4,0.2,16.7,0.8,25
		c0.2,2.7,0.4,5.4,0.6,8.1c0.9,11.3,4.5,21.7,10.6,31c0.9,1.3,1.8,2.6,2.8,3.9c0.8,1.1,1.7,2.2,2.6,3.2c5.9,6.7,13.1,11.8,21.8,14.7
		c2.7,0.9,5.6,1.4,8.4,2c1.3,0.3,2.4,0.8,3.3,1.6c0.8,0.7,1.4,1.6,1.8,2.6C751.5,609.5,751.5,609.8,751.6,610.1z M920.1,59.1
		c-0.3-1.7,0.4-3.2,1.7-4c3.4-2.5,11.2-1.8,15.4-0.5c2.6,0.7,4.4,2.3,4.9,4.5c0.5,2-0.4,4.2-2.1,5.7c-1.5,1.3-3.9,1.8-6.4,1.8
		c-2.7,0-5.4-0.5-7.3-1.1C923.2,64.6,920.5,61.8,920.1,59.1z M905.6,143.3c-6.3-13.3,0.3-29.2,5.6-42.1c1.1-2.6,2.1-5.1,3-7.4
		c2.6-7,4.2-12,4.7-13.7c0.3-1.3,1.1-2.3,2.3-2.8c1.6-0.8,3.9-0.5,6,0.6c3.6,2.1,5,5.6,3.8,9c-0.2,0.5-0.5,1.3-0.8,2.3
		c-2,5.5-6.8,18.5-10.2,30.6c-4,15-4.8,22.9-2.3,23.7c2,0.6,9.2-5.5,21.2-24.8c6.3-10,11.5-19.7,13.7-24.5
		c2.5-7.3,4.4-12.5,5.6-14.7c0.4-0.9,1.1-1.5,2.1-1.8c2.1-0.7,4.8,0.4,6.2,1.2c3.4,2,4.8,4.5,3.8,6.6c-1.1,2.6-3.7,9.8-6.1,17.8l0,0
		c-0.9,2.8-1.9,6.1-2.8,9.3c3.8-6.3,8.7-14,13.8-21.3c10.2-14.1,17-21.4,22.3-23.7c3.8-1.6,7.6-0.1,10.6,4.2
		c2.5,3.6,3.8,8.5,3.5,12.7c-0.4,4.1-1.5,9.3-2.8,14.9c-0.3,1.3-0.6,2.7-0.9,4c-2.3,11-3.7,21.6,0.8,24.8c2.9,2.2,10.2,0,19.2-5.8
		c6.8-4.6,11.1-9,11.4-10c0.4-1.6,1.6-2.9,3.1-3.3c1.5-0.4,3,0,4.2,1c1.3,1.1,2.4,3.6,1.7,7.1c-1.3,6.3-11.3,16.3-22.3,19.8
		c-12.4,4-20,1.5-24.3-1.3c-4.8-3.2-7.9-8.4-8.5-14.8c-0.8-7.5,0.7-16.3,2-23.2c0.8-3.8,1.7-7.4,2.4-10.3c0.5-2.1,1.1-4.4,1.4-5.9
		c-2,1.7-6.7,6.9-17.4,22.3c-12,17.5-25.6,39.8-27,43.7c-0.3,0.8-0.9,1.3-1.6,1.6c-0.3,0.1-0.6,0.1-1,0.1c-1.4,0-3.4-0.8-5.7-2.4
		c-2.5-1.9-5.2-4.5-6-7.2c-4.5,6-9.6,11.3-14.4,12.9c-1.7,0.6-3.4,0.8-5.1,0.8C914.5,153.2,908.6,149.5,905.6,143.3z M1042.6,257.1
		c4.9,3.6,10.6,6,16,6.8c2.7,0.3,7.2-1,9.5-2.4c2-1.2,2.2-2.5,2-3.4c-0.4-1.9-2.8-2.6-4.9-2.9c-3.8-0.6-8.6-3-12.9-6.4
		c-4.3-3.5-7.9-8-10.4-12.8c5.9-6.3,11.1-13.1,15.4-18.9c5-7,8.8-13.5,10.7-18.2c2.3-6.3,0.7-13-4.2-17.5
		c-4.6-4.3-10.9-5.6-16.9-3.4c-5.4,1.9-13.5,9.6-18.6,20.7c-3.2,6.8-4.7,14.6-4.5,22.8c0.2,4.2,0.8,8.1,2,12
		c-13.6,13.3-21.7,17-22.9,15.8c-1.2-1.4,1.2-10.6,2.6-16.1l0.7-2.7c2.2-8.5,4-15.9,2.9-20.1c-1-3.8-4.1-9-8.8-11.5
		c-2.9-1.5-5.9-1.8-8.8-0.8c-5.1,1.7-11.7,8.3-20.2,20.4c-2.9,4-5.7,8.2-8.1,12c1.3-3.7,2.8-7.7,4.4-11.8c2.5-6.8,5.7-14.9,8.8-22.8
		c3.8-9.7,7.4-18.9,8.8-23.3c1.6-5.5,1.3-11.2-0.9-14.8c-1.4-2.2-3.3-3.4-5.3-3.2c-1.2,0.1-3.4,0.8-4.9,4.3c-2,4.9-6.1,17-10.6,30.9
		c-1.6-0.9-3.5-1.6-5.3-1.8c-3.2-0.5-8.2,0.5-16.2,3.2c-3.3,1-6.9,2.4-10.8,4l3.9-10.5c0.4-1.2,0.8-2.3,1.1-3.3
		c0.8-2.4,1.4-4.1,1.6-5.2c0.7-3.4,0-7-1.9-9.5c-1.8-2.5-4.2-3.8-6.3-3.2c-0.8,0.2-2.7,1.1-3,4.3c-0.1,1.1-2.4,7.8-4.9,14.8l-7,19.9
		c-3.6,1.6-7.4,3.3-11.6,5c-4.7,2.1-9.4,4.1-11.5,4.5l-0.1,0c-2.4,0.6-3.2,2.1-3.5,2.9c-0.6,1.7,0,3.9,1.6,5.7
		c2.5,2.9,6.7,4.6,10.1,2.1c0.9-0.6,4.8-2.6,9.9-5.2c-3.4,11.8-9.2,35.1-12,47c-0.9,3.6-1.4,6.1-1.8,8.1c-0.6,3.2,1.6,6.4,5.1,7.3
		c0.6,0.2,1.2,0.2,1.8,0.2c1.2,0,2.4-0.3,3.4-0.9c1.4-0.9,2.3-2.2,2.6-3.8c3.9-20,6.9-33.7,8.9-40.6c2.2-7.4,5-16.1,8.2-25.2
		c5.6-2.5,11.7-5,17.5-7.3c6.3-2.5,13.3-5.1,17.9-5.9c-0.5,1.6-1,3.2-1.6,4.8c-9.5,29-14.8,46.1-16.1,52.4c-0.8,4,1.8,9.7,4.6,12.6
		c1.5,1.6,3.2,2.5,4.7,2.5c0.3,0,0.6,0,0.9-0.1c1.2-0.3,2.9-1.3,3.9-4.4c2.1-5.9,12-20.7,21.4-34.5c13.5-19.3,17.4-20.9,18.1-21
		c0.4,1.2-1.1,5.8-2.2,9.2c-0.4,1.4-0.9,2.8-1.4,4.3c-1.4,4.6-3.3,11.5-3.8,18.3c-0.4,6.6,1.6,12.4,5.8,16.4
		c4.4,4.1,10.2,5.5,15.1,3.8c5.6-1.9,13.2-7.2,21.4-14.8C1034.8,250.4,1038.4,254,1042.6,257.1z M1038.3,219.1
		c0.3-6.8,1.6-12.7,3.8-17.5c4.1-9.3,10.2-13.2,13.2-13.5c0.1,0,0.2,0,0.3,0c0.3,0,0.7,0.1,0.9,0.3c0.3,0.5,1.2,4-7.8,17.6
		c-2.6,4.1-6.1,8.7-10.4,13.9L1038.3,219.1z M409.8,337.7c-1.2-0.2-2.4-0.5-3.7-0.7c-0.2,0-0.4-0.1-0.7-0.1
		c-1.3-0.3-2.6-0.5-3.9-0.8c-0.3-0.1-0.6-0.1-0.9-0.2c0,0,0,0,0,0c-1.3-0.3-2.6-0.6-3.9-0.9c-0.1,0-0.3-0.1-0.4-0.1
		c-1.2-0.3-2.5-0.6-3.7-0.9c-0.3-0.1-0.5-0.1-0.8-0.2c-1.3-0.3-2.5-0.6-3.8-1c-0.3-0.1-0.5-0.1-0.8-0.2c-1.3-0.3-2.5-0.7-3.8-1
		c-0.1,0-0.1,0-0.2,0c-1.3-0.4-2.6-0.7-3.9-1.1c-0.3-0.1-0.6-0.2-0.8-0.2c-1.3-0.3-2.5-0.7-3.8-1.1c-0.3-0.1-0.5-0.1-0.8-0.2
		c-1.2-0.3-2.4-0.7-3.5-1c-0.1,0-0.3-0.1-0.4-0.1c-1.4-0.4-2.7-0.8-4.1-1.2c-1.4-0.4-2.8-0.8-4.2-1.2c-0.2-0.1-0.4-0.1-0.5-0.2
		c-1.1-0.3-2.3-0.7-3.4-1c-0.3-0.1-0.5-0.2-0.8-0.2c-1.2-0.4-2.5-0.7-3.7-1c-0.3-0.1-0.6-0.2-0.9-0.2c-1.3-0.4-2.6-0.7-3.8-1.1
		c-0.1,0-0.2-0.1-0.3-0.1c-1.2-0.3-2.4-0.6-3.6-1c-0.3-0.1-0.5-0.1-0.8-0.2c-1.3-0.3-2.5-0.6-3.8-1c-0.3-0.1-0.5-0.1-0.8-0.2
		c-1.2-0.3-2.5-0.6-3.7-0.9c-0.1,0-0.2,0-0.3-0.1c-1.3-0.3-2.6-0.6-3.9-0.9c-0.3-0.1-0.6-0.1-0.8-0.2c-1.3-0.3-2.6-0.6-3.9-0.8
		c-0.2,0-0.4-0.1-0.7-0.1c-1.2-0.2-2.4-0.5-3.7-0.7c-0.2,0-0.4-0.1-0.5-0.1c-1.3-0.2-2.6-0.5-4-0.7c-0.3,0-0.6-0.1-0.8-0.1
		c-1.3-0.2-2.7-0.4-4-0.6c-0.1,0-0.3,0-0.4-0.1c-1.3-0.2-2.6-0.3-3.8-0.5c-0.2,0-0.5-0.1-0.7-0.1c-1.3-0.1-2.7-0.3-4.1-0.4
		c-0.3,0-0.5,0-0.8-0.1c-1.4-0.1-2.8-0.2-4.2-0.3c0,0,0,0-0.1,0c-1.4-0.1-2.8-0.1-4.2-0.2c-0.3,0-0.5,0-0.8,0
		c-1.4,0-2.8-0.1-4.2-0.1c-0.3,0-0.6,0-0.8,0c-1.1,0-2.2,0-3.2,0c-0.3,0-0.6,0-0.8,0c-1.3,0-2.6,0.1-3.9,0.2c-0.3,0-0.5,0-0.8,0
		c-1.1,0.1-2.2,0.1-3.4,0.2c-0.3,0-0.6,0-0.9,0.1c-1.3,0.1-2.7,0.2-4,0.4c-0.2,0-0.4,0.1-0.6,0.1c-1.2,0.1-2.3,0.3-3.5,0.5
		c-0.3,0-0.7,0.1-1,0.1c-1.4,0.2-2.7,0.4-4.1,0.7c-0.2,0-0.3,0.1-0.5,0.1c-1.2,0.2-2.5,0.5-3.8,0.7c-0.4,0.1-0.8,0.2-1.1,0.2
		c-1.4,0.3-2.8,0.6-4.2,0.9c0,0-0.1,0-0.1,0c-1.8,0.4-3.5,0.5-5.2,0.9c-0.5,0.1-1,0.2-1.5,0.3c-0.1,0-0.2,0-0.3,0
		c-0.5,0.1-1,0.1-1.5,0.1c-0.3,0-0.6,0-0.9,0c-1.5-0.1-3.1-0.6-4.1-1.5c-0.8-0.7-1.4-1.6-1.5-2.9c-0.1-0.9,0-1.8,0.2-2.7
		c0.3-1.1,0.7-2.2,1.2-3.2c0.1-0.3,0.2-0.5,0.4-0.8c0.4-0.9,0.9-1.7,1.4-2.5c2.9-4.9,4.9-10.1,6.2-15.6c0.1-0.3,0.1-0.6,0.2-0.9
		c1.1-5.2,1.6-10.4,1.6-15.7c0-9.6,0-21.3,0.1-34.2c0-5,0-10.3,0-15.7c0-9.1,0-18.6,0.1-28.4c0-5,0-10.1,0-15.2
		c0-23.5,0.1-47.6,0.1-69.4c0-8.2,0-16.1,0.1-23.5c0-3.8,0-7.5,0-11c-0.6-4.8-1.4-9.4-2.3-13.1c-0.4-1.5-0.9-3-1.4-4.5
		c-0.3-0.8-0.5-1.5-0.8-2.3c-0.5-1.6-1.2-3-2.2-4.3c-0.4-0.6-0.9-1.1-1.4-1.7c0,0-0.1-0.1-0.1-0.1c-0.3-0.3-0.7-0.6-1.1-0.9
		c-0.3-0.2-0.5-0.4-0.8-0.6c-1.9-1.3-3.3-2.9-4.1-5.3c0.2-0.2,0.4-0.4,0.5-0.5c0.1,0,0.1-0.1,0.2-0.1c0.1-0.1,0.3-0.2,0.4-0.3
		c0.1,0,0.1-0.1,0.2-0.1c0.2-0.1,0.3-0.1,0.5-0.2c0,0,0.1,0,0.1,0c0.2-0.1,0.4-0.1,0.6-0.1c0.1,0,0.1,0,0.2,0c0.1,0,0.3,0,0.4,0
		c0.1,0,0.1,0,0.2,0c0.1,0,0.3,0,0.4,0c0.1,0,0.1,0,0.2,0c0.2,0,0.4,0,0.5,0c0.2,0,0.4,0,0.6,0c1.2-0.1,2.5-0.1,3.7-0.2
		c4.8-0.2,9.6-0.4,14.4-0.6c3.7-0.1,7.4-0.3,11.1-0.3c2.4-0.1,4.7-0.1,6.9-0.1c10.1-0.2,18.9-0.4,28.4-0.5
		c5.1-0.1,10.4-0.2,16.2-0.3c0.1,0,0.1,0,0.2,0c1.4,0,2.8,0,4.2,0c0.3,0,0.6,0,0.9,0c1.1,0,2.1,0,3.2,0c0.5,0,0.9,0,1.4,0
		c1,0,1.9,0.1,2.9,0.1c0.4,0,0.8,0,1.3,0c1.4,0.1,2.7,0.1,4.1,0.2c0.4,0,0.8,0,1.2,0.1c0.1,0,0.2,0,0.3,0c0.3,0.1,0.6,0.2,0.8,0.3
		c0,0,0.1,0,0.1,0c0.1,0,0.1,0.1,0.1,0.1c0.6,0.5,0.9,1.2,0.8,1.9c0,0.2-0.1,0.3-0.2,0.5c-0.6,1.1-1.2,2.3-2,3.2
		c-5.2,6-8.1,12.9-9.8,20.5c-0.1,0.5-0.2,0.9-0.3,1.4c-1,5-1.5,10.1-1.5,15.2c0,9.3,0,18.3-0.1,27.2c0,19.7-0.1,38.5-0.2,57.4
		c0,4.7,0,9.4-0.1,14.2c0,8.6-0.1,17.3-0.1,26.2c0,4.7,0,9.4-0.1,14.2c0,4.8,0,9.6-0.1,14.5c0,4.4-0.1,8.9-0.2,13.3
		c-0.1,4.9-0.2,9.7-0.3,14.6c0,1,0,2,0,3c0,0.1,0,0.3,0,0.4c0,0.1,0,0.2,0,0.3c0,1.1,0.5,2,1.4,2.5c0.1,0.1,0.3,0.2,0.4,0.2
		c0.1,0.1,0.3,0.1,0.4,0.2c0.3,0.2,0.6,0.3,0.9,0.5c16.5,8.6,32.9,16.7,50.2,22.9c1.5,0.5,2.9,1,4.4,1.5c0.7,0.2,1.4,0.5,2.1,0.7
		c4.7,1.5,9.4,2.9,14.2,4c0.1,0,0.2,0,0.3,0.1c8.3,2,16.7,3.5,25.5,4.2c1.4,0.1,2.9,0.2,4.3,0.3c0.5,0,1,0.1,1.5,0.1
		c0.9,0.1,1.9,0.1,2.8,0.1c0.6,0,1.1,0,1.7,0.1c0.8,0,1.7,0.1,2.5,0.1c0.6,0,1.2,0,1.8,0c0.8,0,1.6,0,2.4,0c0.6,0,1.2,0,1.8,0
		c0.8,0,1.6,0,2.4-0.1c0.6,0,1.2,0,1.8-0.1c0.8,0,1.6-0.1,2.4-0.1c0.6,0,1.1-0.1,1.7-0.1c0.9-0.1,1.8-0.1,2.6-0.2
		c0.5,0,1-0.1,1.5-0.1c1.2-0.1,2.5-0.2,3.7-0.4c0.1,0,0.2,0,0.3,0c0.3,0,0.6-0.1,0.9-0.1c1-0.1,2.1-0.3,3.1-0.4
		c0.5-0.1,1-0.2,1.6-0.2c0.8-0.1,1.6-0.3,2.4-0.4c0.6-0.1,1.1-0.2,1.7-0.3c0.7-0.1,1.5-0.3,2.2-0.4c0.6-0.1,1.2-0.2,1.8-0.4
		c0.3-0.1,0.5-0.1,0.8-0.2c0.4-0.1,0.9-0.2,1.3-0.3c0.6-0.1,1.2-0.3,1.8-0.4c0.7-0.2,1.4-0.4,2.1-0.5c0.6-0.1,1.1-0.3,1.7-0.5
		c0.7-0.2,1.4-0.4,2.1-0.6c0.6-0.2,1.1-0.3,1.7-0.5c0.8-0.2,1.5-0.5,2.2-0.7c0.5-0.2,1-0.3,1.5-0.5c1.1-0.4,2.2-0.8,3.3-1.2
		c0.4-0.2,0.8-0.3,1.2-0.5c0.9-0.3,1.8-0.7,2.7-1.1c0.5-0.2,1-0.4,1.5-0.6c0.7-0.3,1.4-0.6,2.1-0.9c0,0,0,0,0,0
		c0.5-0.2,1-0.5,1.5-0.7c0.4-0.2,0.8-0.3,1.1-0.5c0.3-0.1,0.6-0.3,0.8-0.4c0.5-0.3,1.1-0.5,1.6-0.8c0.6-0.3,1.3-0.6,1.9-1
		c0.5-0.3,1-0.5,1.6-0.8c0.6-0.3,1.3-0.7,1.9-1c0.5-0.3,1-0.6,1.5-0.9c0.3-0.2,0.5-0.3,0.8-0.5c0.4-0.2,0.8-0.4,1.1-0.7
		c0.5-0.3,1-0.6,1.4-0.9c0.7-0.4,1.4-0.9,2-1.3c0.4-0.3,0.8-0.5,1.3-0.8c1-0.7,2-1.3,2.9-2c0.3-0.2,0.5-0.4,0.8-0.5
		c0.9-0.6,1.8-1.3,2.6-1.9c0.4-0.3,0.8-0.6,1.2-0.9c0.6-0.5,1.3-1,1.9-1.5c0.4-0.3,0.8-0.7,1.3-1c0.6-0.5,1.2-1,1.8-1.5
		c0.4-0.4,0.9-0.7,1.3-1.1c0.6-0.5,1.1-1,1.7-1.5c0.4-0.4,0.8-0.8,1.3-1.2c0.6-0.5,1.1-1.1,1.7-1.6c0.4-0.4,0.8-0.8,1.2-1.2
		c0.6-0.6,1.1-1.1,1.7-1.7c0.4-0.4,0.8-0.8,1.1-1.2c0.6-0.6,1.2-1.3,1.8-2c0.3-0.3,0.6-0.7,0.9-1c0.9-1,1.8-2,2.6-3
		c0,0,0-0.1,0.1-0.1c0,0,0,0,0,0c0.2-0.2,0.4-0.5,0.6-0.7c0,0,0.1-0.1,0.1-0.1c0.2-0.2,0.4-0.5,0.6-0.7c0,0,0.1-0.1,0.1-0.1
		c0.2-0.2,0.5-0.4,0.7-0.7c0,0,0.1,0,0.1-0.1c0.2-0.2,0.5-0.4,0.7-0.6c0,0,0,0,0,0c0.3-0.2,0.5-0.4,0.8-0.5c0,0,0.1-0.1,0.1-0.1
		c0.3-0.1,0.5-0.3,0.8-0.4c0,0,0.1,0,0.1-0.1c0.3-0.1,0.6-0.2,0.8-0.3c0,0,0,0,0.1,0c0.3-0.1,0.6-0.1,0.8-0.1c0,0,0.1,0,0.1,0
		c0.1,0,0.3,0,0.4,0c0.1,0,0.1,0,0.2,0c0.2,0,0.4,0.1,0.6,0.1c0.3,0.1,0.6,0.2,0.9,0.4c2,1.1,2.9,3.7,3.3,6.1
		c0.1,0.3,0.1,0.6,0.2,0.8c0.2,0.9,0.3,1.8,0.4,2.6c0.8,4.6,1.2,7.8,1.5,11.6c0.1,1.3,0.2,2.7,0.3,4.3c0.1,1,0.1,2,0.2,3.2
		c0,0.3,0,0.6,0,0.9c0,0.9,0.1,1.7,0.1,2.5c0.1,5-0.4,9.4-1.7,13.5c-0.2,0.7-0.5,1.3-0.7,2c-0.8,2-1.9,3.9-3.2,5.6
		c-0.4,0.5-0.8,1-1.2,1.4c-0.3,0.3-0.5,0.6-0.8,0.9c-1.9,2-4.2,3.9-7,5.7c-0.1,0.1-0.2,0.1-0.3,0.2c-0.8,0.5-1.7,1-2.5,1.6
		c-0.3,0.2-0.7,0.4-1,0.6c-0.6,0.4-1.2,0.7-1.8,1.1c-0.4,0.2-0.8,0.4-1.2,0.7c-0.1,0.1-0.2,0.1-0.3,0.2c-0.5,0.3-1,0.5-1.4,0.8
		c-0.4,0.2-0.9,0.4-1.3,0.7c-0.6,0.3-1.2,0.6-1.8,0.9c-0.4,0.2-0.9,0.4-1.3,0.6c-0.6,0.3-1.2,0.6-1.8,0.8c-0.4,0.2-0.9,0.4-1.4,0.6
		c-0.6,0.3-1.3,0.6-1.9,0.8c-0.4,0.2-0.8,0.3-1.2,0.5c0,0-0.1,0-0.1,0c-0.7,0.3-1.4,0.6-2.1,0.8c-0.4,0.2-0.8,0.3-1.2,0.5
		c-0.9,0.4-1.8,0.7-2.7,1c-0.2,0.1-0.4,0.2-0.6,0.2c-1.1,0.4-2.3,0.8-3.4,1.2c-0.3,0.1-0.7,0.2-1,0.3c-0.8,0.3-1.5,0.5-2.3,0.8
		c0,0-0.1,0-0.1,0c0,0,0,0,0,0c-0.4,0.1-0.9,0.3-1.3,0.4c-0.7,0.2-1.4,0.5-2.2,0.7c-0.5,0.1-1,0.3-1.4,0.4c-0.7,0.2-1.4,0.4-2.1,0.6
		c-0.5,0.1-1,0.3-1.5,0.4c-0.7,0.2-1.4,0.4-2.1,0.6c-0.2,0.1-0.4,0.1-0.7,0.2c-0.3,0.1-0.5,0.1-0.8,0.2c-0.7,0.2-1.5,0.4-2.2,0.5
		c-0.5,0.1-0.9,0.2-1.4,0.3c-0.8,0.2-1.6,0.4-2.3,0.5c-0.4,0.1-0.9,0.2-1.3,0.3c-0.6,0.1-1.2,0.3-1.8,0.4c-0.3,0.1-0.6,0.1-1,0.2
		c-0.3,0.1-0.6,0.1-0.8,0.2c-0.8,0.2-1.5,0.3-2.3,0.4c-0.5,0.1-0.9,0.2-1.4,0.3c-0.3,0-0.5,0.1-0.8,0.1c-1,0.2-1.9,0.3-2.9,0.5
		c-0.4,0.1-0.9,0.1-1.3,0.2c-0.8,0.1-1.6,0.3-2.4,0.4c-0.5,0.1-1,0.1-1.4,0.2c-0.8,0.1-1.5,0.2-2.2,0.3c-0.5,0.1-1,0.1-1.5,0.2
		c0,0-0.1,0-0.1,0c-0.7,0.1-1.4,0.2-2.1,0.3c-0.5,0.1-1,0.1-1.5,0.2c-0.7,0.1-1.5,0.2-2.2,0.2c-0.5,0.1-1,0.1-1.4,0.2
		c-0.8,0.1-1.5,0.1-2.3,0.2c-0.4,0-0.9,0.1-1.3,0.1c-0.9,0.1-1.7,0.1-2.6,0.2c-0.3,0-0.7,0.1-1,0.1c-1.2,0.1-2.4,0.2-3.6,0.2
		c-0.1,0-0.3,0-0.4,0c-1.1,0.1-2.1,0.1-3.2,0.2c-0.4,0-0.8,0-1.1,0c-0.1,0-0.2,0-0.3,0c-0.7,0-1.4,0.1-2.1,0.1c-0.4,0-0.9,0-1.3,0
		c-0.7,0-1.4,0-2.2,0c-0.5,0-0.9,0-1.4,0c-0.7,0-1.4,0-2.1,0c-0.4,0-0.8,0-1.3,0c-0.7,0-1.4,0-2.1,0c-0.4,0-0.8,0-1.2,0
		c-0.8,0-1.5,0-2.3-0.1c-0.3,0-0.6,0-1,0c-1.1,0-2.1-0.1-3.2-0.2c0,0,0,0,0,0c-1.4-0.1-2.8-0.2-4.2-0.3c-0.3,0-0.6,0-0.9-0.1
		c-1.4-0.1-2.7-0.3-4.1-0.4c-0.3,0-0.5-0.1-0.8-0.1c-1.3-0.1-2.6-0.3-3.9-0.5c-0.1,0-0.3,0-0.4-0.1c-1-0.1-2.1-0.3-3.1-0.5
		c-0.3,0-0.6-0.1-0.9-0.1c-0.3,0-0.6-0.1-0.9-0.1c-1.3-0.2-2.7-0.4-4-0.7C410.2,337.8,410,337.7,409.8,337.7z"/>
</g>
</svg>
