<?xml version="1.0" encoding="utf-8"?>
<!-- Generator: Adobe Illustrator 25.2.3, SVG Export Plug-In . SVG Version: 6.00 Build 0)  -->
<svg version="1.1" id="Isolation_Mode" xmlns="http://www.w3.org/2000/svg" xmlns:xlink="http://www.w3.org/1999/xlink" x="0px"
	 y="0px" viewBox="0 0 379.8 138.4" style="enable-background:new 0 0 379.8 138.4;" xml:space="preserve">
<style type="text/css">
	.line{fill:#FFFFFF;}
</style>
<path class="line" d="M99.1,57.9c0.3,0,0.5,0,0.8,0c30.5,0,58.3-11.2,85.2-21.9c14.5-5.8,29.6-11.9,44.6-15.9
	c25.8-6.9,54.2-7.7,82.2-2.4c23.9,4.6,47.2,13.5,67.9,26V27.4C332.2,0.9,276-7,226,6.4c-15.8,4.2-31.2,10.4-46.2,16.4
	C153,33.6,127.7,43.7,99.9,43.7c-0.2,0-0.5,0-0.7,0C61.2,43.5,25.4,30.9,0,9v18C27,46.6,62.2,57.6,99.1,57.9z"/>
<path class="line" d="M226,46.7c-15.8,4.2-31.2,10.4-46.2,16.4c-27,10.9-52.6,21.1-80.6,20.9C61.2,83.7,25.4,71.1,0,49.3v18
	c27,19.5,62.2,30.6,99.1,30.8c0.3,0,0.5,0,0.8,0c30.5,0,58.3-11.2,85.2-21.9c14.5-5.8,29.6-11.9,44.6-15.9
	c25.8-6.9,54.2-7.7,82.2-2.4c23.9,4.6,47.2,13.5,67.9,26V67.6C332.2,41.2,276,33.3,226,46.7z"/>
<path class="line" d="M226,86.9c-15.8,4.2-31.2,10.4-46.2,16.4c-27,10.9-52.6,21.1-80.6,20.9C61.2,124,25.4,111.4,0,89.6v18
	c27,19.5,62.2,30.6,99.1,30.8c0.3,0,0.5,0,0.8,0c30.5,0,58.3-11.2,85.2-21.9c14.5-5.8,29.6-11.9,44.6-15.9
	c25.8-6.9,54.2-7.7,82.2-2.4c23.9,4.6,47.2,13.5,67.9,26v-16.4C332.2,81.5,276,73.6,226,86.9z"/>
</svg>
