<?xml version="1.0" standalone="no"?>
<!DOCTYPE svg PUBLIC "-//W3C//DTD SVG 20010904//EN"
 "http://www.w3.org/TR/2001/REC-SVG-20010904/DTD/svg10.dtd">
<svg version="1.0" xmlns="http://www.w3.org/2000/svg"
 width="1280.000000pt" height="705.000000pt" viewBox="0 0 1280.000000 705.000000"
 preserveAspectRatio="xMidYMid meet">
<metadata>
Created by potrace 1.15, written by Peter Selinger 2001-2017
</metadata>
<g transform="translate(0.000000,705.000000) scale(0.100000,-0.100000)"
fill="#000000" stroke="none">
<path d="M5402 5698 c-40 -5 -117 -20 -170 -33 -106 -27 -267 -102 -267 -124
0 -7 -11 -20 -25 -29 l-25 -14 25 21 c30 24 20 28 -15 5 -14 -9 -23 -20 -20
-24 3 -4 -3 -14 -13 -21 -15 -13 -16 -12 -3 4 7 9 9 17 3 17 -12 0 -34 -25
-27 -32 3 -3 -3 -11 -12 -19 -16 -13 -17 -12 -4 4 20 25 -2 21 -25 -5 -12 -14
-14 -18 -4 -13 8 4 4 -4 -9 -18 -14 -15 -27 -27 -29 -27 -3 0 3 9 13 20 10 11
14 20 8 20 -14 0 -276 -254 -405 -392 l-107 -115 195 57 c138 41 193 53 190
43 -7 -17 25 -10 63 14 42 27 111 95 105 104 -3 5 0 8 8 7 7 -2 12 2 11 8 -1
7 8 20 20 30 l22 19 -19 -22 c-27 -32 -5 -29 25 4 13 14 17 22 9 18 -10 -5 -8
-1 4 13 21 25 36 31 16 7 -7 -8 -8 -15 -2 -15 12 0 34 25 27 32 -3 3 3 11 12
19 16 13 17 12 4 -3 -7 -10 -9 -18 -3 -18 11 0 39 31 34 37 -2 3 0 8 4 11 4 4
4 1 -1 -7 -5 -9 -3 -12 6 -9 8 3 14 10 14 18 0 7 11 19 25 28 l25 14 -25 -21
c-38 -32 -21 -25 66 24 225 129 553 165 871 94 l92 -20 118 35 c65 19 127 37
138 40 11 3 2 3 -20 2 -22 -2 -51 -7 -65 -10 -24 -6 -25 -6 -2 4 58 25 55 36
-18 69 -286 132 -571 183 -838 149z m67 -12 c-2 -2 -33 -6 -69 -9 -41 -3 -54
-2 -35 3 31 8 112 13 104 6z m306 -7 c20 -5 9 -6 -30 -2 -33 3 -62 7 -64 9 -8
7 63 2 94 -7z m-480 -19 c-11 -5 -27 -9 -35 -9 -9 0 -8 4 5 9 11 5 27 9 35 9
9 0 8 -4 -5 -9z m590 0 c27 -7 27 -8 5 -8 -14 0 -36 4 -50 8 -20 6 -21 8 -5 8
11 0 34 -4 50 -8z m-670 -20 c-11 -5 -27 -9 -35 -9 -9 0 -8 4 5 9 11 5 27 9
35 9 9 0 8 -4 -5 -9z m762 -6 c-3 -3 -12 -4 -19 -1 -8 3 -5 6 6 6 11 1 17 -2
13 -5z m-852 -24 c-22 -10 -44 -18 -50 -18 -5 0 8 8 30 19 22 10 45 18 50 18
6 0 -8 -9 -30 -19z m931 3 c27 -9 44 -18 39 -20 -6 -2 -32 6 -60 17 -61 24
-47 26 21 3z m-1001 -33 c-3 -5 -12 -10 -18 -10 -7 0 -6 4 3 10 19 12 23 12
15 0z m1105 -6 c23 -9 39 -18 37 -20 -2 -3 -24 4 -48 15 -54 24 -45 27 11 5z
m75 -42 c-3 -3 -11 0 -18 7 -9 10 -8 11 6 5 10 -3 15 -9 12 -12z m40 -20 c-3
-3 -11 0 -18 7 -9 10 -8 11 6 5 10 -3 15 -9 12 -12z m-552 -29 c-24 -2 -62 -2
-85 0 -24 2 -5 4 42 4 47 0 66 -2 43 -4z m-150 -10 c-13 -2 -35 -2 -50 0 -16
2 -5 4 22 4 28 0 40 -2 28 -4z m270 0 c-13 -2 -35 -2 -50 0 -16 2 -5 4 22 4
28 0 40 -2 28 -4z m-383 -13 c-14 -4 -36 -8 -50 -8 -22 0 -22 1 5 8 17 4 39 8
50 8 16 0 15 -2 -5 -8z m495 0 c27 -7 27 -8 5 -8 -14 0 -38 4 -55 8 -27 7 -27
8 -5 8 14 0 39 -4 55 -8z m242 -6 c-3 -3 -12 -4 -19 -1 -8 3 -5 6 6 6 11 1 17
-2 13 -5z m-820 -10 c-3 -3 -12 -4 -19 -1 -8 3 -5 6 6 6 11 1 17 -2 13 -5z
m668 -4 c25 -11 -1 -11 -35 0 -20 6 -21 8 -5 8 11 0 29 -3 40 -8z m100 0 c-27
-12 -43 -12 -25 0 8 5 22 9 30 9 10 0 8 -3 -5 -9z m-808 -6 c-3 -3 -12 -4 -19
-1 -8 3 -5 6 6 6 11 1 17 -2 13 -5z m-52 -14 c-27 -12 -43 -12 -25 0 8 5 22 9
30 9 10 0 8 -3 -5 -9z m-55 -20 c-8 -5 -19 -10 -25 -10 -5 0 -3 5 5 10 8 5 20
10 25 10 6 0 3 -5 -5 -10z m-460 -13 c0 -1 -28 -29 -62 -62 l-63 -60 60 63
c55 58 65 67 65 59z m415 -7 c-3 -5 -12 -10 -18 -10 -7 0 -6 4 3 10 19 12 23
12 15 0z m-55 -25 c0 -2 -10 -9 -22 -15 -22 -11 -22 -10 -4 4 21 17 26 19 26
11z m-700 -310 c-41 -41 -68 -75 -60 -75 13 0 13 -2 0 -10 -8 -5 -22 -10 -30
-10 -8 0 23 38 70 85 47 47 87 85 90 85 2 0 -29 -34 -70 -75z m338 30 c-26
-25 -55 -45 -65 -45 -12 1 -8 5 12 14 17 8 43 28 59 45 17 17 32 31 35 31 3 0
-15 -21 -41 -45z m-123 -35 c-11 -5 -27 -9 -35 -9 -9 0 -8 4 5 9 11 5 27 9 35
9 9 0 8 -4 -5 -9z m-115 -35 c-19 -7 -42 -13 -50 -13 -8 0 1 6 20 13 19 7 42
13 50 13 8 0 -1 -6 -20 -13z m-85 -25 c-11 -5 -29 -8 -40 -8 -16 0 -15 2 5 8
34 11 60 11 35 0z"/>
<path d="M4441 4934 l-184 -53 -181 -177 c-224 -219 -245 -241 -223 -225 28
22 19 7 -15 -25 -18 -16 -24 -19 -14 -6 11 12 15 22 9 22 -13 0 -55 -45 -48
-52 3 -3 -3 -11 -12 -19 -16 -13 -17 -12 -4 4 7 9 9 17 4 17 -12 0 -50 -40
-45 -47 2 -3 0 -8 -4 -11 -4 -4 -4 -1 0 6 4 6 3 12 -2 12 -11 0 -30 -21 -30
-33 0 -5 -4 -12 -8 -15 -4 -4 -4 -1 0 6 11 18 -9 15 -25 -5 -12 -15 -12 -16 1
-8 13 8 13 7 1 -8 -15 -19 -26 -23 -15 -6 4 7 1 10 -7 7 -8 -3 -13 -10 -12
-16 1 -5 -5 -16 -15 -24 -15 -12 -16 -11 -3 5 7 9 10 17 5 17 -15 -1 -49 -30
-49 -42 0 -7 -15 -20 -32 -31 -18 -10 -33 -16 -33 -13 0 3 14 13 31 21 17 9
29 19 26 21 -2 3 -32 -11 -66 -31 -210 -123 -408 -178 -641 -177 -192 0 -341
29 -696 136 -83 25 -161 46 -173 46 -12 0 -100 -22 -196 -50 -96 -28 -182 -50
-192 -51 -10 0 41 -12 112 -25 153 -29 241 -52 550 -144 364 -109 473 -130
675 -131 157 0 290 25 434 82 142 57 353 179 341 199 -3 5 0 12 6 16 8 5 9 3
4 -6 -5 -8 -3 -11 6 -8 8 3 13 10 12 16 -1 5 5 16 15 24 15 12 16 11 3 -4 -20
-26 2 -22 25 4 12 13 13 18 4 13 -9 -5 -8 0 4 13 21 25 36 31 16 7 -20 -24 5
-17 26 7 12 13 13 18 4 13 -9 -5 -8 0 4 13 21 25 36 31 16 7 -22 -27 6 -16 31
12 18 21 19 24 4 13 -11 -8 -7 0 9 18 17 18 32 32 34 32 3 0 -3 -9 -13 -20
-10 -11 -13 -20 -7 -20 20 0 404 388 396 401 -4 7 -3 9 4 5 12 -7 199 191 194
206 -1 5 1 7 6 4 5 -3 35 22 67 54 33 33 57 60 55 59 -3 -1 -88 -25 -189 -55z
m139 22 c0 -3 -4 -8 -10 -11 -5 -3 -10 -1 -10 4 0 6 5 11 10 11 6 0 10 -2 10
-4z m-40 -16 c-8 -5 -24 -9 -35 -9 -16 1 -16 2 5 9 35 11 48 11 30 0z m-93
-26 c-3 -3 -12 -4 -19 -1 -8 3 -5 6 6 6 11 1 17 -2 13 -5z m-47 -14 c-8 -5
-24 -9 -35 -9 -16 1 -16 2 5 9 35 11 48 11 30 0z m-93 -26 c-3 -3 -12 -4 -19
-1 -8 3 -5 6 6 6 11 1 17 -2 13 -5z m-38 -6 c-2 -2 -22 -19 -44 -38 l-40 -35
34 38 c19 20 39 37 45 37 5 0 7 -1 5 -2z m151 -83 c-41 -41 -77 -75 -79 -75
-3 0 28 34 69 75 41 41 77 75 79 75 3 0 -28 -34 -69 -75z m-280 -48 c0 -1 -30
-32 -67 -67 l-68 -65 65 68 c60 62 70 72 70 64z m150 -90 c0 -1 -75 -76 -167
-167 l-168 -165 165 168 c153 155 170 172 170 164z m-300 -50 c0 -1 -26 -27
-57 -57 l-58 -55 55 58 c50 53 60 62 60 54z m-1987 -384 c-7 -2 -21 -2 -30 0
-10 3 -4 5 12 5 17 0 24 -2 18 -5z m1487 -8 c0 -2 -13 -11 -30 -20 -38 -19
-40 -11 -2 9 31 17 32 18 32 11z m-1413 -11 c-3 -3 -12 -4 -19 -1 -8 3 -5 6 6
6 11 1 17 -2 13 -5z m91 -25 c23 -7 40 -14 38 -16 -5 -5 -116 27 -116 33 0 3
8 3 18 0 9 -2 36 -10 60 -17z m1212 -24 c-14 -8 -29 -14 -35 -14 -5 0 1 6 15
14 14 8 30 14 35 14 6 0 -1 -6 -15 -14z m-1665 -5 c-24 -10 -17 -13 73 -30 34
-7 61 -15 59 -17 -3 -2 -44 4 -92 13 -77 16 -85 19 -69 31 10 7 25 13 33 12
11 0 10 -3 -4 -9z m562 -6 c-3 -3 -12 -4 -19 -1 -8 3 -5 6 6 6 11 1 17 -2 13
-5z m88 -26 c13 -5 9 -6 -15 -2 -19 4 -42 10 -50 15 -18 11 34 1 65 -13z m943
7 c-9 -10 -112 -45 -128 -44 -8 0 14 10 50 23 68 25 87 30 78 21z m374 -17
c-6 -7 -25 -22 -44 -32 -39 -23 -32 -13 14 20 38 26 45 29 30 12z m-1265 -4
c-3 -3 -12 -4 -19 -1 -8 3 -5 6 6 6 11 1 17 -2 13 -5z m-507 -14 c20 -6 21 -8
5 -8 -11 0 -29 3 -40 8 -25 11 1 11 35 0z m547 4 c-3 -3 -12 -4 -19 -1 -8 3
-5 6 6 6 11 1 17 -2 13 -5z m46 -11 c-7 -2 -19 -2 -25 0 -7 3 -2 5 12 5 14 0
19 -2 13 -5z m-463 -29 c55 -20 22 -16 -45 6 -33 11 -44 17 -25 13 19 -3 50
-11 70 -19z m590 5 c26 -6 22 -7 -20 -2 -30 3 -64 9 -75 14 -23 10 37 2 95
-12z m515 11 c-11 -5 -31 -8 -45 -8 -23 0 -22 1 5 8 42 11 65 11 40 0z m-78
-16 c-3 -3 -12 -4 -19 -1 -8 3 -5 6 6 6 11 1 17 -2 13 -5z m533 1 c0 -2 -10
-9 -22 -15 -22 -11 -22 -10 -4 4 21 17 26 19 26 11z m-837 -12 c-18 -2 -48 -2
-65 0 -18 2 -4 4 32 4 36 0 50 -2 33 -4z m245 0 c-15 -2 -42 -2 -60 0 -18 2
-6 4 27 4 33 0 48 -2 33 -4z m-883 -13 c13 -5 14 -9 5 -9 -8 0 -24 4 -35 9
-13 5 -14 9 -5 9 8 0 24 -4 35 -9z m753 3 c-16 -2 -40 -2 -55 0 -16 2 -3 4 27
4 30 0 43 -2 28 -4z m672 -8 c0 -2 -13 -11 -30 -20 -38 -19 -40 -11 -2 9 31
17 32 18 32 11z m-1310 -30 c19 -7 28 -13 20 -13 -8 0 -31 6 -50 13 -19 7 -28
13 -20 13 8 0 31 -6 50 -13z m85 -25 c13 -5 14 -9 5 -9 -8 0 -24 4 -35 9 -13
5 -14 9 -5 9 8 0 24 -4 35 -9z m1101 -11 c-26 -16 -174 -69 -189 -69 -7 1 30
16 82 35 51 19 96 36 99 40 3 3 10 5 16 5 6 0 3 -5 -8 -11z m-971 -29 c33 -11
44 -17 25 -13 -38 6 -111 31 -95 32 6 0 37 -8 70 -19z m145 -35 c30 -7 46 -14
35 -14 -11 0 -42 6 -70 13 -65 18 -37 19 35 1z m600 -15 c-14 -4 -34 -8 -45
-8 -16 0 -15 2 5 8 14 4 34 8 45 8 16 0 15 -2 -5 -8z m-507 -7 c-7 -2 -19 -2
-25 0 -7 3 -2 5 12 5 14 0 19 -2 13 -5z m80 -10 c-13 -2 -33 -2 -45 0 -13 2
-3 4 22 4 25 0 35 -2 23 -4z m345 0 c-10 -2 -26 -2 -35 0 -10 3 -2 5 17 5 19
0 27 -2 18 -5z m-125 -10 c-34 -2 -93 -2 -130 0 -37 2 -9 3 62 3 72 0 102 -1
68 -3z"/>
<path d="M5682 4789 c-119 -14 -239 -47 -326 -87 -102 -48 -168 -90 -161 -102
3 -5 0 -12 -6 -16 -8 -5 -9 -3 -4 6 5 8 3 11 -6 8 -8 -3 -13 -10 -12 -16 1 -5
-5 -16 -15 -24 -15 -12 -16 -11 -3 5 20 25 -2 21 -25 -5 -12 -13 -13 -18 -4
-13 9 5 8 0 -4 -13 -21 -25 -36 -31 -16 -7 20 24 -5 17 -26 -7 -12 -14 -14
-18 -4 -13 8 4 -1 -8 -19 -28 -19 -21 -37 -37 -40 -37 -3 0 8 14 24 30 16 17
24 30 18 30 -12 0 -357 -342 -431 -428 -49 -56 -51 -61 -25 -52 124 43 362
106 352 93 -11 -12 -8 -13 17 -8 37 9 80 40 76 55 -1 6 1 9 6 6 4 -2 37 22 72
55 36 33 58 57 50 53 -10 -5 -9 0 4 14 21 25 36 31 16 7 -7 -8 -8 -15 -3 -15
13 0 45 35 38 42 -3 3 3 11 12 19 16 13 17 12 4 -3 -7 -10 -9 -18 -3 -18 11 0
30 21 30 33 0 5 4 12 8 15 4 4 4 1 -1 -7 -5 -9 -3 -12 6 -9 8 3 14 10 14 18 0
7 11 19 25 28 l25 14 -25 -21 c-30 -24 -20 -28 15 -5 14 9 23 20 20 24 -3 5 0
12 6 16 8 4 9 3 5 -4 -11 -18 1 -15 47 13 198 116 577 153 863 85 l85 -20 127
36 c132 38 164 51 99 41 -34 -5 -36 -5 -21 10 15 15 12 19 -39 45 -119 60
-212 91 -442 147 -64 16 -308 22 -403 10z m191 -6 c-18 -2 -48 -2 -65 0 -18 2
-4 4 32 4 36 0 50 -2 33 -4z m-125 -10 c-15 -2 -42 -2 -60 0 -18 2 -6 4 27 4
33 0 48 -2 33 -4z m218 -8 c-2 -5 -19 -52 -36 -102 -30 -87 -33 -93 -58 -92
-27 1 -27 1 -3 8 20 5 30 22 53 91 15 46 28 87 28 91 0 4 -10 10 -22 12 -14 3
-10 4 10 4 18 -1 30 -6 28 -12z m-341 -5 c-16 -4 -41 -8 -55 -8 -22 0 -22 1 5
8 17 4 41 8 55 8 22 0 22 -1 -5 -8z m505 -8 c3 -2 -10 -2 -28 0 -18 3 -35 1
-38 -3 -9 -16 -54 -144 -54 -156 0 -6 15 -14 33 -16 26 -4 24 -4 -9 -4 l-41 1
9 35 c6 20 18 56 28 81 9 25 20 53 23 62 5 14 13 16 39 11 18 -3 35 -8 38 -11z
m-605 -12 c-11 -5 -29 -8 -40 -8 -16 0 -15 2 5 8 34 11 60 11 35 0z m652 4
c-3 -3 -12 -4 -19 -1 -8 3 -5 6 6 6 11 1 17 -2 13 -5z m40 -10 c-3 -3 -12 -4
-19 -1 -8 3 -5 6 6 6 11 1 17 -2 13 -5z m-792 -22 c-22 -9 -73 -33 -112 -53
-40 -20 -73 -36 -73 -34 0 13 191 105 215 104 6 -1 -8 -8 -30 -17z m850 8 c13
-5 14 -9 5 -9 -8 0 -24 4 -35 9 -13 5 -14 9 -5 9 8 0 24 -4 35 -9z m60 -20
c13 -6 15 -9 5 -9 -8 0 -22 4 -30 9 -18 12 -2 12 25 0z m75 -26 c23 -9 39 -18
37 -20 -2 -3 -24 4 -48 15 -54 24 -45 27 11 5z m110 -49 c25 -13 41 -24 35
-24 -5 0 -30 11 -55 24 -25 13 -40 24 -35 24 6 0 30 -11 55 -24z m-702 -62
c-10 -2 -26 -2 -35 0 -10 3 -2 5 17 5 19 0 27 -2 18 -5z m320 0 c-10 -2 -26
-2 -35 0 -10 3 -2 5 17 5 19 0 27 -2 18 -5z m387 -3 c-11 -5 -27 -9 -35 -9 -9
0 -8 4 5 9 11 5 27 9 35 9 9 0 8 -4 -5 -9z m-777 -7 c-10 -2 -26 -2 -35 0 -10
3 -2 5 17 5 19 0 27 -2 18 -5z m460 0 c-10 -2 -26 -2 -35 0 -10 3 -2 5 17 5
19 0 27 -2 18 -5z m-521 -9 c-3 -3 -12 -4 -19 -1 -8 3 -5 6 6 6 11 1 17 -2 13
-5z m603 -4 c20 -6 21 -8 5 -8 -11 0 -31 4 -45 8 -20 6 -21 8 -5 8 11 0 31 -4
45 -8z m-643 -6 c-3 -3 -12 -4 -19 -1 -8 3 -5 6 6 6 11 1 17 -2 13 -5z m790 0
c-3 -3 -12 -4 -19 -1 -8 3 -5 6 6 6 11 1 17 -2 13 -5z m-842 -14 c-11 -5 -27
-9 -35 -9 -9 0 -8 4 5 9 11 5 27 9 35 9 9 0 8 -4 -5 -9z m787 -1 c-12 -5 -32
-5 -44 0 -18 6 -13 8 22 8 35 0 40 -2 22 -8z m-862 -22 c-14 -6 -51 -24 -82
-39 -32 -16 -58 -26 -58 -23 0 8 141 75 155 74 5 0 -1 -5 -15 -12z m-520 -60
c0 -1 -66 -67 -147 -147 l-148 -145 145 148 c134 137 150 152 150 144z m110
-212 c-24 -25 -46 -45 -49 -45 -3 0 15 20 39 45 24 25 46 45 49 45 3 0 -15
-20 -39 -45z m-99 -85 c-13 -11 -28 -20 -35 -20 -6 0 3 9 19 19 39 25 46 25
16 1z m-72 -4 c-8 -8 -221 -67 -225 -63 -3 2 42 18 98 34 97 29 137 38 127 29z
m-270 -42 l-34 -36 35 6 c40 7 14 -6 -35 -18 -30 -7 -30 -7 15 38 24 25 46 46
49 46 3 0 -11 -16 -30 -36z"/>
<path d="M1075 4354 c-219 -18 -495 -85 -672 -165 -92 -41 -204 -109 -198
-119 3 -5 0 -12 -6 -16 -8 -5 -9 -3 -4 6 5 8 3 11 -6 8 -8 -3 -14 -10 -14 -18
0 -7 -16 -24 -35 -38 l-35 -25 35 31 c19 18 31 32 26 32 -14 0 -86 -61 -81
-69 2 -5 -9 -21 -26 -37 -24 -23 -29 -34 -24 -59 l5 -30 -11 28 c-10 25 -8 32
17 58 15 16 23 29 18 29 -6 0 -21 -11 -34 -25 l-24 -25 24 -100 c13 -55 27
-104 30 -111 5 -8 18 -8 44 0 43 11 109 58 101 71 -3 5 0 12 6 16 8 5 9 3 4
-6 -5 -8 -3 -11 6 -8 8 3 13 10 12 16 -1 5 5 16 15 24 15 12 16 11 3 -4 -21
-27 -8 -22 66 26 134 86 290 150 487 201 185 47 328 65 524 65 145 0 176 3
235 22 44 14 63 25 55 30 -8 5 -3 7 12 3 14 -3 88 14 174 38 l149 44 -129 31
c-202 49 -362 72 -539 76 -88 2 -182 2 -210 0z m168 -11 c-13 -2 -33 -2 -45 0
-13 2 -3 4 22 4 25 0 35 -2 23 -4z m-115 -10 c-21 -2 -57 -2 -80 0 -24 2 -7 4
37 4 44 0 63 -2 43 -4z m289 0 c-20 -2 -52 -2 -70 0 -17 2 0 4 38 4 39 0 53
-2 32 -4z m-457 -14 c-25 -4 -56 -7 -70 -7 -38 1 37 15 80 15 32 0 31 0 -10
-8z m553 4 c-7 -2 -21 -2 -30 0 -10 3 -4 5 12 5 17 0 24 -2 18 -5z m65 -10
c-10 -2 -26 -2 -35 0 -10 3 -2 5 17 5 19 0 27 -2 18 -5z m-725 -10 c-7 -2 -19
-2 -25 0 -7 3 -2 5 12 5 14 0 19 -2 13 -5z m822 -3 c27 -7 27 -8 5 -8 -14 0
-38 4 -55 8 -27 7 -27 8 -5 8 14 0 39 -4 55 -8z m-872 -7 c-7 -2 -19 -2 -25 0
-7 3 -2 5 12 5 14 0 19 -2 13 -5z m-58 -13 c-11 -5 -29 -8 -40 -8 -16 0 -15 2
5 8 34 11 60 11 35 0z m992 4 c-3 -3 -12 -4 -19 -1 -8 3 -5 6 6 6 11 1 17 -2
13 -5z m100 -21 c57 -14 63 -17 43 -25 -13 -5 -28 -7 -34 -4 -6 2 -2 5 9 6 11
1 -9 10 -45 20 -82 23 -61 26 27 3z m-1212 -14 c-33 -10 -64 -18 -70 -18 -15
1 97 38 115 37 8 0 -12 -8 -45 -19z m-86 -23 c-8 -8 -133 -56 -136 -52 -2 2
24 15 59 29 58 24 87 33 77 23z m1158 -42 c-3 -3 -12 -4 -19 -1 -8 3 -5 6 6 6
11 1 17 -2 13 -5z m-350 -51 c-20 -2 -52 -2 -70 0 -17 2 0 4 38 4 39 0 53 -2
32 -4z m190 1 c-3 -3 -12 -4 -19 -1 -8 3 -5 6 6 6 11 1 17 -2 13 -5z m-1227
-9 c0 -2 -10 -9 -22 -15 -22 -11 -22 -10 -4 4 21 17 26 19 26 11z m893 -2
c-13 -2 -35 -2 -50 0 -16 2 -5 4 22 4 28 0 40 -2 28 -4z m280 0 c-13 -2 -33
-2 -45 0 -13 2 -3 4 22 4 25 0 35 -2 23 -4z m-364 -7 c-2 -2 -35 -6 -74 -9
-42 -3 -58 -2 -40 3 30 8 122 13 114 6z m-859 -21 c0 -2 -10 -9 -22 -15 -22
-11 -22 -10 -4 4 21 17 26 19 26 11z m703 -2 c-7 -2 -21 -2 -30 0 -10 3 -4 5
12 5 17 0 24 -2 18 -5z m-56 -9 c-3 -3 -12 -4 -19 -1 -8 3 -5 6 6 6 11 1 17
-2 13 -5z m-102 -24 c-38 -11 -71 -17 -73 -15 -2 2 16 9 39 15 24 6 49 13 54
15 6 2 19 3 30 3 11 0 -11 -8 -50 -18z m-88 -26 c-3 -3 -12 -4 -19 -1 -8 3 -5
6 6 6 11 1 17 -2 13 -5z m-47 -14 c-8 -5 -22 -9 -30 -9 -10 0 -8 3 5 9 27 12
43 12 25 0z m-99 -35 c-18 -8 -36 -15 -40 -15 -13 1 45 29 59 29 8 0 0 -6 -19
-14z m-72 -29 c-10 -9 -129 -66 -129 -61 0 6 111 64 124 65 5 0 7 -2 5 -4z
m-159 -81 c0 -2 -10 -9 -22 -15 -22 -11 -22 -10 -4 4 21 17 26 19 26 11z
m-281 -85 c0 -9 -4 -8 -9 5 -5 11 -9 27 -9 35 0 9 4 8 9 -5 5 -11 9 -27 9 -35z
m108 -38 c-24 -26 -89 -45 -99 -29 -4 7 -7 19 -7 27 0 9 4 5 9 -7 8 -20 12
-21 42 -11 18 6 40 17 48 24 21 20 26 17 7 -4z"/>
<path d="M4712 4025 l-183 -53 -207 -203 c-264 -259 -241 -236 -217 -219 15
11 14 8 -4 -13 -25 -28 -43 -38 -21 -12 7 8 8 15 3 15 -12 0 -59 -50 -55 -57
2 -2 0 -8 -4 -11 -4 -4 -4 -1 0 6 4 6 3 12 -2 12 -11 0 -39 -31 -34 -37 2 -3
0 -8 -4 -11 -4 -4 -4 -1 0 6 4 6 3 12 -2 12 -11 0 -30 -21 -30 -33 0 -5 -4
-12 -8 -15 -4 -4 -4 -1 0 6 4 6 3 12 -2 12 -11 0 -30 -21 -30 -33 0 -5 -4 -12
-8 -15 -4 -4 -4 -1 1 7 5 9 3 12 -6 9 -8 -3 -14 -10 -14 -18 0 -7 -11 -19 -25
-28 l-25 -14 25 21 c30 24 20 28 -15 5 -14 -9 -23 -20 -20 -24 3 -5 0 -12 -6
-16 -8 -4 -9 -3 -5 4 11 18 7 16 -97 -39 -199 -104 -373 -149 -584 -149 -196
0 -358 31 -710 138 l-163 49 -195 -55 -196 -56 138 -27 c76 -15 226 -53 333
-85 107 -31 255 -74 328 -95 394 -115 657 -121 936 -23 115 41 300 139 291
154 -3 5 0 12 6 16 8 5 9 3 4 -6 -5 -8 -3 -11 6 -8 8 3 14 10 14 16 0 5 4 14
9 19 5 5 6 2 1 -6 -5 -9 -3 -12 6 -9 8 3 13 10 12 16 -1 5 5 16 15 24 15 12
16 11 3 -4 -7 -10 -9 -18 -3 -18 13 0 33 25 26 32 -3 3 9 16 27 29 18 13 29
18 25 11 -4 -7 -3 -12 2 -12 12 0 33 25 27 32 -3 3 3 11 12 19 16 13 17 12 4
-3 -22 -29 3 -21 30 9 18 21 19 24 4 13 -11 -8 -7 0 9 18 17 18 32 32 34 32 3
0 -3 -10 -14 -21 -10 -12 -13 -20 -7 -18 26 8 223 201 217 211 -4 6 -3 8 3 5
5 -3 61 47 124 111 121 123 414 433 408 431 -2 -1 -86 -25 -187 -54z m158 32
c0 -1 -44 -45 -97 -97 l-98 -95 80 84 c64 67 75 82 55 78 -81 -16 -87 -15 -20
7 41 13 76 24 78 25 1 1 2 0 2 -2z m-160 -51 c0 -6 -105 -36 -122 -35 -7 0 14
9 47 19 66 20 75 22 75 16z m-150 -46 c-8 -5 -22 -9 -30 -9 -10 0 -8 3 5 9 27
12 43 12 25 0z m-60 -43 c0 -1 -57 -58 -127 -127 l-128 -125 125 128 c116 118
130 132 130 124z m80 -162 c-41 -41 -77 -75 -79 -75 -3 0 28 34 69 75 41 41
77 75 79 75 3 0 -28 -34 -69 -75z m-400 -150 c-24 -25 -46 -45 -49 -45 -3 0
15 20 39 45 24 25 46 45 49 45 3 0 -15 -20 -39 -45z m250 -10 c-24 -25 -46
-45 -49 -45 -3 0 15 20 39 45 24 25 46 45 49 45 3 0 -15 -20 -39 -45z m-200
-190 c-24 -25 -46 -45 -49 -45 -3 0 15 20 39 45 24 25 46 45 49 45 3 0 -15
-20 -39 -45z m-1975 -94 c-6 -5 -21 -11 -35 -15 -21 -5 -20 -3 5 9 35 17 42
18 30 6z m1545 4 c0 -2 -13 -11 -30 -20 -38 -19 -40 -11 -2 9 31 17 32 18 32
11z m-1452 -26 c23 -7 40 -14 38 -16 -5 -5 -116 27 -116 33 0 3 8 3 18 0 9 -2
36 -10 60 -17z m-241 -25 c-3 -3 -12 -4 -19 -1 -8 3 -5 6 6 6 11 1 17 -2 13
-5z m350 -10 c-3 -3 -12 -4 -19 -1 -8 3 -5 6 6 6 11 1 17 -2 13 -5z m142 -39
c57 -16 100 -30 95 -32 -11 -4 -215 54 -223 63 -3 4 1 5 9 2 8 -3 62 -18 119
-33z m1021 5 c-19 -11 -39 -19 -45 -19 -5 0 6 8 25 19 19 11 40 19 45 19 6 0
-6 -8 -25 -19z m-1622 -4 c26 -8 64 -18 86 -21 21 -3 36 -8 33 -11 -2 -3 -38
2 -78 11 -41 8 -85 15 -99 15 -20 0 -22 2 -10 10 19 12 13 13 68 -4z m1533
-31 c-18 -8 -38 -15 -45 -15 -15 1 46 28 64 29 8 0 0 -6 -19 -14z m-1346 -15
c25 -11 -1 -11 -35 0 -20 6 -21 8 -5 8 11 0 29 -3 40 -8z m605 -5 c30 -7 46
-14 35 -14 -11 0 -42 6 -70 13 -65 18 -37 19 35 1z m665 -5 c-11 -5 -29 -8
-40 -8 -16 0 -15 2 5 8 34 11 60 11 35 0z m-1195 -10 c11 -8 7 -9 -15 -4 -37
8 -45 14 -19 14 10 0 26 -5 34 -10z m617 -6 c-3 -3 -12 -4 -19 -1 -8 3 -5 6 6
6 11 1 17 -2 13 -5z m510 0 c-3 -3 -12 -4 -19 -1 -8 3 -5 6 6 6 11 1 17 -2 13
-5z m-1030 -20 c30 -9 53 -18 51 -20 -2 -2 -33 5 -69 15 -35 11 -58 20 -51 20
8 1 39 -6 69 -15z m648 6 c40 -6 43 -7 15 -8 -19 0 -57 3 -85 8 -40 6 -43 7
-15 8 19 0 58 -3 85 -8z m333 3 c-10 -2 -26 -2 -35 0 -10 3 -2 5 17 5 19 0 27
-2 18 -5z m-75 -10 c-13 -2 -33 -2 -45 0 -13 2 -3 4 22 4 25 0 35 -2 23 -4z
m597 2 c0 -2 -10 -9 -22 -15 -22 -11 -22 -10 -4 4 21 17 26 19 26 11z m-707
-12 c-13 -2 -35 -2 -50 0 -16 2 -5 4 22 4 28 0 40 -2 28 -4z m-634 -38 c46
-14 87 -27 90 -31 8 -7 -37 4 -124 32 -95 30 -70 29 34 -1z m1291 19 c0 -6
-164 -84 -176 -83 -5 0 32 20 81 44 106 51 95 46 95 39z m-1095 -79 c44 -13
73 -24 65 -24 -17 -1 -170 47 -155 48 6 0 46 -10 90 -24z m895 -15 c-8 -5 -22
-9 -30 -9 -10 0 -8 3 5 9 27 12 43 12 25 0z m-710 -31 c16 -6 10 -7 -20 -3
-25 4 -54 10 -65 15 -24 10 48 0 85 -12z m620 1 c-34 -11 -60 -11 -35 0 11 5
29 8 40 8 16 0 15 -2 -5 -8z m-505 -19 c26 -6 31 -9 15 -9 -14 -1 -43 3 -65 7
-26 6 -31 9 -15 9 14 1 43 -3 65 -7z m438 2 c-7 -2 -21 -2 -30 0 -10 3 -4 5
12 5 17 0 24 -2 18 -5z m-78 -13 c-16 -4 -95 -7 -175 -7 l-145 1 150 6 c83 3
161 6 175 7 21 1 21 0 -5 -7z"/>
<path d="M5955 3880 c-27 -4 -73 -10 -102 -14 -92 -11 -316 -103 -310 -127 1
-6 -9 -18 -23 -26 l-25 -15 25 21 c34 28 18 26 -31 -4 -22 -14 -37 -30 -34
-35 3 -5 0 -12 -6 -16 -8 -4 -9 -3 -5 4 4 7 3 12 -2 12 -12 0 -33 -25 -27 -32
3 -3 -3 -11 -12 -19 -16 -13 -17 -12 -4 4 20 25 -2 21 -25 -5 -12 -14 -14 -18
-4 -13 8 4 4 -4 -9 -18 -14 -15 -27 -27 -29 -27 -3 0 3 9 13 20 10 11 14 20 8
20 -5 0 -22 -14 -39 -32 -16 -18 -21 -26 -11 -19 32 25 17 5 -30 -39 -38 -35
-41 -37 -13 -7 18 20 30 37 24 37 -8 0 -211 -201 -384 -383 -57 -60 -61 -66
-35 -57 130 44 366 106 361 95 -6 -18 49 -2 78 22 52 43 105 97 101 103 -2 4
8 18 23 31 14 13 20 16 13 7 -22 -29 3 -21 30 9 18 20 19 24 4 13 -20 -15 -20
-14 -1 8 20 23 32 30 21 12 -10 -17 12 -11 26 7 12 15 12 16 -1 8 -13 -8 -13
-7 -1 8 15 18 26 23 16 7 -10 -16 5 -12 36 11 16 11 27 24 24 29 -3 5 0 12 6
16 8 4 9 3 5 -4 -11 -18 5 -14 49 13 22 14 40 30 40 37 0 6 7 13 15 15 13 4
13 3 0 -7 -24 -18 31 -4 93 25 177 80 573 95 778 29 45 -14 50 -14 185 25 76
22 130 40 119 41 -20 1 -208 89 -192 90 5 0 42 -16 84 -35 42 -19 78 -34 80
-32 3 4 -167 86 -222 107 -53 21 -177 50 -293 70 -116 20 -288 25 -387 10z
m228 -7 c-29 -2 -78 -2 -110 0 -32 2 -8 3 52 3 61 0 87 -1 58 -3z m-223 -14
c-25 -4 -58 -7 -75 -7 -25 1 -24 2 10 8 22 4 56 7 75 7 31 0 30 0 -10 -8z
m375 2 c53 -11 5 -12 -55 -2 -34 6 -37 9 -15 9 17 1 48 -3 70 -7z m-491 -143
c-4 -68 -9 -117 -12 -110 -6 18 8 245 15 238 3 -2 1 -60 -3 -128z m641 111
c24 -10 -48 0 -85 12 -16 6 -10 7 20 3 25 -4 54 -10 65 -15z m-744 -164 l-10
-110 5 129 c4 125 4 128 -16 122 -52 -16 -61 -15 -20 3 l45 19 3 -27 c1 -14
-2 -75 -7 -136z m796 149 c-3 -3 -12 -4 -19 -1 -8 3 -5 6 6 6 11 1 17 -2 13
-5z m36 -96 c-3 -51 -8 -95 -11 -98 -2 -3 -2 37 0 87 3 60 0 94 -6 97 -6 2 -3
5 6 5 15 1 16 -9 11 -91z m98 -22 l-2 -74 83 24 c45 13 87 23 92 21 5 -2 -29
-14 -75 -26 -46 -13 -91 -26 -99 -28 -13 -3 -14 9 -12 82 2 48 6 84 9 81 3 -3
5 -39 4 -80z m-373 -33 c-32 -2 -86 -2 -120 0 -35 2 -9 3 57 3 66 0 94 -1 63
-3z m-205 -10 c-13 -2 -33 -2 -45 0 -13 2 -3 4 22 4 25 0 35 -2 23 -4z m340 0
c-13 -2 -33 -2 -45 0 -13 2 -3 4 22 4 25 0 35 -2 23 -4z m-472 -19 c-35 -8
-66 -12 -69 -10 -5 6 76 24 108 24 14 0 -4 -6 -39 -14z m532 9 c-7 -2 -19 -2
-25 0 -7 3 -2 5 12 5 14 0 19 -2 13 -5z m50 -10 c-7 -2 -19 -2 -25 0 -7 3 -2
5 12 5 14 0 19 -2 13 -5z m-666 -19 c-3 -3 -12 -4 -19 -1 -8 3 -5 6 6 6 11 1
17 -2 13 -5z m-217 -89 c0 -2 -10 -9 -22 -15 -22 -11 -22 -10 -4 4 21 17 26
19 26 11z m-670 -290 c-41 -41 -77 -75 -79 -75 -3 0 28 34 69 75 41 41 77 75
79 75 3 0 -28 -34 -69 -75z m340 30 c-24 -25 -47 -45 -51 -45 -8 0 83 89 91
90 2 0 -16 -20 -40 -45z m-110 -35 c-8 -5 -19 -10 -25 -10 -5 0 -3 5 5 10 8 5
20 10 25 10 6 0 3 -5 -5 -10z m-43 -16 c-3 -3 -12 -4 -19 -1 -8 3 -5 6 6 6 11
1 17 -2 13 -5z m-70 -20 c-3 -3 -12 -4 -19 -1 -8 3 -5 6 6 6 11 1 17 -2 13 -5z
m-70 -20 c-3 -3 -12 -4 -19 -1 -8 3 -5 6 6 6 11 1 17 -2 13 -5z m-97 -29 c-43
-17 -63 -18 -55 -5 4 6 9 9 13 6 4 -2 16 0 27 5 11 4 27 8 35 8 8 0 -1 -7 -20
-14z"/>
<path d="M1305 3439 c-159 -16 -401 -72 -538 -123 -99 -38 -249 -115 -242
-126 3 -5 0 -12 -6 -16 -8 -4 -9 -3 -5 4 12 19 -7 14 -47 -14 -21 -14 -35 -29
-32 -33 2 -5 -3 -15 -13 -22 -15 -13 -16 -12 -3 4 7 9 9 17 3 17 -12 0 -34
-25 -27 -32 3 -3 -3 -11 -12 -19 -16 -13 -17 -12 -4 4 22 28 -3 20 -30 -10
-18 -21 -19 -24 -4 -13 11 8 -2 -9 -30 -38 -27 -29 -51 -52 -54 -52 -3 0 13
18 34 40 21 22 35 40 29 40 -5 0 -26 -17 -46 -37 l-37 -38 28 -110 c15 -62 30
-104 35 -97 4 6 32 19 62 28 30 8 67 27 82 41 15 13 20 21 12 17 -13 -7 -13
-5 -1 9 15 18 26 23 16 7 -3 -5 -2 -10 3 -10 11 0 39 31 34 37 -2 3 0 8 4 11
4 4 4 1 -1 -7 -5 -9 -3 -12 6 -9 8 3 14 10 14 18 0 7 11 19 25 28 l25 14 -25
-21 c-36 -30 -18 -26 39 9 143 88 349 167 561 213 172 39 267 49 465 51 106 1
188 7 200 13 11 6 105 35 209 64 l189 54 -57 17 c-94 29 -344 76 -460 87 -124
12 -283 12 -401 0z m268 -6 c-29 -2 -78 -2 -110 0 -32 2 -8 3 52 3 61 0 87 -1
58 -3z m-200 -10 c-13 -2 -35 -2 -50 0 -16 2 -5 4 22 4 28 0 40 -2 28 -4z
m397 -3 c47 -6 49 -7 15 -8 -22 0 -67 4 -100 8 -55 6 -56 7 -15 8 25 0 70 -3
100 -8z m-481 -4 c-2 -2 -33 -6 -69 -9 -39 -3 -55 -2 -40 3 25 8 117 13 109 6z
m574 -13 c-7 -2 -19 -2 -25 0 -7 3 -2 5 12 5 14 0 19 -2 13 -5z m-768 -18
c-33 -8 -67 -14 -75 -13 -27 0 74 26 105 26 18 0 6 -5 -30 -13z m828 8 c-7 -2
-21 -2 -30 0 -10 3 -4 5 12 5 17 0 24 -2 18 -5z m122 -24 c24 -10 -48 0 -85
12 -16 6 -10 7 20 3 25 -4 54 -10 65 -15z m-1060 -8 c-29 -11 -90 -22 -82 -15
7 7 64 22 87 22 9 1 7 -3 -5 -7z m1140 -11 c25 -11 -1 -11 -35 0 -20 6 -21 8
-5 8 11 0 29 -3 40 -8z m-1238 -16 c-3 -3 -12 -4 -19 -1 -8 3 -5 6 6 6 11 1
17 -2 13 -5z m1290 0 c-3 -3 -12 -4 -19 -1 -8 3 -5 6 6 6 11 1 17 -2 13 -5z
m-1337 -14 c-8 -5 -22 -9 -30 -9 -10 0 -8 3 5 9 27 12 43 12 25 0z m1250 -10
c-8 -5 -22 -9 -30 -9 -10 0 -8 3 5 9 27 12 43 12 25 0z m-1360 -30 c-8 -5 -19
-10 -25 -10 -5 0 -3 5 5 10 8 5 20 10 25 10 6 0 3 -5 -5 -10z m1207 -16 c-3
-3 -12 -4 -19 -1 -8 3 -5 6 6 6 11 1 17 -2 13 -5z m-1268 -8 c-10 -9 -89 -46
-89 -41 0 6 72 44 84 45 5 0 7 -2 5 -4z m1211 -6 c-8 -5 -19 -10 -25 -10 -5 0
-3 5 5 10 8 5 20 10 25 10 6 0 3 -5 -5 -10z m-55 -20 c-27 -12 -43 -12 -25 0
8 5 22 9 30 9 10 0 8 -3 -5 -9z m-162 -7 c-24 -2 -62 -2 -85 0 -24 2 -5 4 42
4 47 0 66 -2 43 -4z m-180 -10 c-18 -2 -48 -2 -65 0 -18 2 -4 4 32 4 36 0 50
-2 33 -4z m285 0 c-10 -2 -28 -2 -40 0 -13 2 -5 4 17 4 22 1 32 -1 23 -4z
m-405 -10 c-7 -2 -21 -2 -30 0 -10 3 -4 5 12 5 17 0 24 -2 18 -5z m-65 -10
c-10 -2 -26 -2 -35 0 -10 3 -2 5 17 5 19 0 27 -2 18 -5z m-61 -9 c-3 -3 -12
-4 -19 -1 -8 3 -5 6 6 6 11 1 17 -2 13 -5z m-111 -25 c-43 -11 -81 -17 -83
-15 -6 5 107 34 137 34 14 0 -11 -8 -54 -19z m-191 -54 c-110 -37 -111 -38
-102 -28 9 9 169 62 187 62 8 0 -30 -16 -85 -34z m-135 -49 c0 -2 -9 -6 -20
-9 -11 -3 -18 -1 -14 4 5 9 34 13 34 5z m-51 -20 c-10 -9 -109 -56 -109 -51 0
6 91 54 104 55 5 0 7 -2 5 -4z m-119 -61 c0 -2 -10 -9 -22 -15 -22 -11 -22
-10 -4 4 21 17 26 19 26 11z m-351 -65 c0 -9 -4 -8 -9 5 -5 11 -9 27 -9 35 0
9 4 8 9 -5 5 -11 9 -27 9 -35z m20 -80 c0 -9 -4 -8 -9 5 -5 11 -9 27 -9 35 0
9 4 8 9 -5 5 -11 9 -27 9 -35z m131 5 c-7 -8 -17 -15 -23 -15 -6 0 -2 7 9 15
25 19 30 19 14 0z m-43 -21 c-3 -3 -12 -4 -19 -1 -8 3 -5 6 6 6 11 1 17 -2 13
-5z m-67 -18 c0 -3 -4 -8 -10 -11 -5 -3 -10 -1 -10 4 0 6 5 11 10 11 6 0 10
-2 10 -4z"/>
<path d="M4014 3225 c-10 -8 -14 -15 -8 -15 6 0 17 7 24 15 16 19 9 19 -16 0z"/>
<path d="M4982 3114 l-184 -53 -61 -67 c-34 -37 -61 -71 -59 -76 1 -4 -4 -7
-10 -6 -7 2 -12 -3 -10 -10 1 -6 -4 -11 -10 -10 -7 2 -12 -3 -10 -10 1 -6 -4
-11 -10 -10 -7 2 -12 -3 -10 -10 1 -6 -4 -11 -10 -10 -7 2 -12 -3 -10 -10 1
-6 -4 -11 -10 -10 -7 2 -12 -3 -10 -10 1 -8 -1 -11 -6 -8 -4 2 -44 -29 -87
-71 -44 -41 -72 -70 -62 -63 28 20 20 6 -15 -26 -18 -16 -24 -19 -14 -6 30 34
3 26 -30 -10 -16 -18 -20 -26 -9 -18 15 11 14 8 -4 -13 -25 -28 -43 -38 -21
-12 7 8 8 15 3 15 -13 0 -45 -35 -38 -42 3 -3 -3 -11 -12 -19 -16 -13 -17 -12
-4 4 7 9 9 17 3 17 -11 0 -30 -21 -30 -33 0 -5 -4 -12 -8 -15 -4 -4 -4 -1 0 6
4 6 3 12 -2 12 -12 0 -33 -25 -27 -32 3 -3 -3 -11 -12 -19 -16 -13 -17 -12 -4
4 22 28 5 20 -76 -34 -42 -29 -126 -76 -187 -105 -201 -96 -368 -130 -591
-121 -159 6 -299 35 -594 122 l-217 64 -74 -23 c-45 -14 -69 -25 -60 -29 8 -3
4 -4 -10 -1 -14 3 -37 0 -50 -6 -23 -10 -23 -10 -2 -6 12 2 19 0 16 -6 -3 -5
-18 -7 -32 -4 -15 3 -62 -4 -104 -17 l-78 -23 83 -12 c119 -19 289 -63 551
-142 413 -124 539 -147 765 -137 141 6 194 16 328 61 98 33 268 119 268 136 0
7 11 19 25 28 l25 14 -25 -21 c-38 -32 -15 -25 46 14 30 20 52 39 49 44 -3 5
9 19 27 31 l33 22 -30 -26 c-16 -14 -25 -26 -20 -26 6 0 26 14 45 31 19 17 28
27 20 23 -10 -5 -9 0 4 14 21 25 36 31 16 7 -20 -24 5 -17 26 7 12 14 14 18 4
13 -8 -4 -4 4 9 18 14 15 27 27 29 27 3 0 -3 -9 -13 -20 -10 -11 -14 -20 -8
-20 5 0 22 14 39 32 16 18 20 26 9 18 -11 -8 -2 5 20 28 21 23 41 42 44 42 3
0 -8 -13 -24 -30 -16 -16 -25 -30 -21 -30 28 0 550 535 539 553 -3 6 -2 7 4 4
5 -3 47 32 94 79 46 46 79 84 74 83 -6 -1 -93 -25 -193 -55z m158 33 c0 -1
-28 -29 -62 -62 -58 -55 -59 -56 -13 -7 27 28 45 52 40 53 -6 0 -1 4 10 9 25
11 25 11 25 7z m-95 -37 c-11 -5 -27 -9 -35 -9 -9 0 -8 4 5 9 11 5 27 9 35 9
9 0 8 -4 -5 -9z m-58 -16 c-3 -3 -12 -4 -19 -1 -8 3 -5 6 6 6 11 1 17 -2 13
-5z m-82 -24 c-11 -5 -27 -9 -35 -9 -9 0 -8 4 5 9 11 5 27 9 35 9 9 0 8 -4 -5
-9z m-58 -16 c-3 -3 -12 -4 -19 -1 -8 3 -5 6 6 6 11 1 17 -2 13 -5z m-37 -7
c0 -1 -28 -29 -62 -62 l-63 -60 60 63 c55 58 65 67 65 59z m180 -60 c0 -1 -26
-27 -57 -57 l-58 -55 55 58 c50 53 60 62 60 54z m-140 -150 c0 -1 -75 -76
-167 -167 l-168 -165 165 168 c153 155 170 172 170 164z m-290 -40 c0 -1 -26
-27 -57 -57 l-58 -55 55 58 c50 53 60 62 60 54z m-440 -362 c0 -2 -10 -9 -22
-15 -22 -11 -22 -10 -4 4 21 17 26 19 26 11z m-50 -30 c0 -2 -10 -9 -22 -15
-22 -11 -22 -10 -4 4 21 17 26 19 26 11z m-1565 -15 c-11 -5 -27 -9 -35 -9 -9
0 -8 4 5 9 11 5 27 9 35 9 9 0 8 -4 -5 -9z m105 -5 c19 -7 28 -13 20 -13 -8 0
-31 6 -50 13 -19 7 -28 13 -20 13 8 0 31 -6 50 -13z m-163 -11 c-3 -3 -12 -4
-19 -1 -8 3 -5 6 6 6 11 1 17 -2 13 -5z m1573 1 c0 -7 -110 -61 -140 -69 -14
-4 11 11 55 33 93 46 85 42 85 36z m-1295 -25 c13 -5 14 -9 5 -9 -8 0 -24 4
-35 9 -13 5 -14 9 -5 9 8 0 24 -4 35 -9z m85 -25 c19 -7 28 -13 20 -13 -8 0
-31 6 -50 13 -19 7 -28 13 -20 13 8 0 31 -6 50 -13z m-565 -15 c19 -8 19 -9
-2 -9 -12 -1 -25 4 -28 9 -7 12 2 12 30 0z m750 -35 c72 -19 122 -34 113 -34
-19 -1 -249 57 -257 64 -8 9 12 4 144 -30z m-650 15 c13 -6 5 -7 -25 -3 -25 3
-47 7 -49 9 -9 8 55 2 74 -6z m1495 0 c-8 -5 -19 -10 -25 -10 -5 0 -3 5 5 10
8 5 20 10 25 10 6 0 3 -5 -5 -10z m-1382 -27 c36 -9 62 -18 57 -20 -6 -1 -41
6 -80 16 -38 11 -64 20 -57 20 7 1 43 -7 80 -16z m1267 -13 c-11 -5 -27 -9
-35 -9 -9 0 -8 4 5 9 11 5 27 9 35 9 9 0 8 -4 -5 -9z m-1145 -20 c11 -8 7 -9
-15 -4 -37 8 -45 14 -19 14 10 0 26 -5 34 -10z m593 3 c-7 -2 -21 -2 -30 0
-10 3 -4 5 12 5 17 0 24 -2 18 -5z m490 0 c-7 -2 -21 -2 -30 0 -10 3 -4 5 12
5 17 0 24 -2 18 -5z m-430 -10 c-7 -2 -21 -2 -30 0 -10 3 -4 5 12 5 17 0 24
-2 18 -5z m370 0 c-7 -2 -19 -2 -25 0 -7 3 -2 5 12 5 14 0 19 -2 13 -5z m-976
-9 c-3 -3 -12 -4 -19 -1 -8 3 -5 6 6 6 11 1 17 -2 13 -5z m856 -1 c-40 -2
-107 -2 -150 0 -43 1 -10 3 72 3 83 0 118 -2 78 -3z m-746 -29 c30 -9 53 -18
50 -20 -2 -2 -30 4 -63 15 -72 23 -63 27 13 5z m1363 11 c0 -6 -137 -75 -147
-75 -6 1 134 77 145 80 1 0 2 -2 2 -5z m-1273 -41 c-3 -3 -12 -4 -19 -1 -8 3
-5 6 6 6 11 1 17 -2 13 -5z m110 -30 c30 -9 53 -18 50 -20 -2 -2 -30 4 -63 15
-72 23 -63 27 13 5z m993 -14 c-8 -5 -19 -10 -25 -10 -5 0 -3 5 5 10 8 5 20
10 25 10 6 0 3 -5 -5 -10z m-875 -20 c25 -11 -1 -11 -35 0 -20 6 -21 8 -5 8
11 0 29 -3 40 -8z m80 -20 c25 -11 -1 -11 -35 0 -20 6 -21 8 -5 8 11 0 29 -3
40 -8z m702 4 c-3 -3 -12 -4 -19 -1 -8 3 -5 6 6 6 11 1 17 -2 13 -5z m-40 -10
c-3 -3 -12 -4 -19 -1 -8 3 -5 6 6 6 11 1 17 -2 13 -5z m-594 -11 c-7 -2 -19
-2 -25 0 -7 3 -2 5 12 5 14 0 19 -2 13 -5z m554 1 c-3 -3 -12 -4 -19 -1 -8 3
-5 6 6 6 11 1 17 -2 13 -5z m-504 -11 c-7 -2 -19 -2 -25 0 -7 3 -2 5 12 5 14
0 19 -2 13 -5z m464 1 c-3 -3 -12 -4 -19 -1 -8 3 -5 6 6 6 11 1 17 -2 13 -5z
m-379 -11 c-10 -2 -28 -2 -40 0 -13 2 -5 4 17 4 22 1 32 -1 23 -4z m320 0
c-10 -2 -26 -2 -35 0 -10 3 -2 5 17 5 19 0 27 -2 18 -5z m-115 -10 c-35 -2
-91 -2 -125 0 -35 2 -7 3 62 3 69 0 97 -1 63 -3z"/>
<path d="M6185 2964 c-77 -13 -201 -47 -275 -75 -52 -20 -171 -99 -165 -109 3
-5 -9 -18 -27 -30 l-33 -22 30 26 c17 14 26 26 20 26 -5 0 -26 -14 -45 -31
-19 -17 -28 -27 -20 -23 8 4 4 -5 -9 -19 -14 -15 -27 -27 -29 -27 -3 0 3 9 13
20 10 11 14 20 8 20 -5 0 -20 -12 -34 -27 -13 -14 -17 -23 -9 -18 8 4 -1 -8
-19 -28 -19 -21 -37 -37 -40 -37 -3 0 8 14 24 30 16 17 24 30 19 30 -14 0
-105 -95 -99 -103 3 -4 2 -5 -2 -2 -10 8 -203 -187 -196 -198 3 -6 2 -7 -4 -4
-5 4 -47 -32 -93 -78 -45 -47 -79 -85 -74 -85 5 0 92 25 194 55 170 49 218 59
180 35 -20 -13 -10 -12 31 2 36 12 191 146 184 158 -4 7 18 30 59 60 13 10 17
10 12 3 -4 -7 -3 -13 2 -13 12 0 33 25 27 32 -3 3 3 11 12 19 16 13 17 12 4
-3 -21 -27 -2 -20 64 22 97 64 149 88 242 115 230 67 447 70 716 10 57 -13 62
-12 190 26 82 25 115 38 87 35 -25 -3 -38 -2 -30 1 8 3 20 12 27 18 20 21
-192 112 -382 165 -139 38 -407 50 -560 24z m273 -1 c-26 -2 -71 -2 -100 0
-29 2 -8 3 47 3 55 0 79 -1 53 -3z m-185 -10 c-13 -2 -35 -2 -50 0 -16 2 -5 4
22 4 28 0 40 -2 28 -4z m343 1 c17 -5 26 -24 48 -104 31 -117 30 -110 9 -110
-13 0 -14 3 -6 8 9 6 6 29 -12 96 -13 49 -27 91 -30 95 -4 3 -30 8 -58 12 -48
6 -49 6 -12 7 22 1 49 -1 61 -4z m-433 -11 c-7 -2 -19 -2 -25 0 -7 3 -2 5 12
5 14 0 19 -2 13 -5z m-44 -7 c-2 -2 -22 -6 -44 -9 -28 -5 -34 -4 -20 3 19 8
73 14 64 6z m631 -106 c12 -47 30 -91 38 -97 14 -12 14 -13 -1 -13 -15 0 -47
86 -70 189 -14 58 12 -2 33 -79z m-755 75 c-22 -8 -44 -15 -50 -14 -18 0 50
27 70 28 11 0 2 -6 -20 -14z m790 5 c13 -5 14 -9 5 -9 -8 0 -24 4 -35 9 -13 5
-14 9 -5 9 8 0 24 -4 35 -9z m65 -20 c18 -12 2 -12 -25 0 -13 6 -15 9 -5 9 8
0 22 -4 30 -9z m-939 -156 l22 -101 73 33 c40 19 79 34 86 34 11 0 -133 -68
-156 -73 -9 -2 -48 137 -60 211 -10 67 11 3 35 -104z m1039 120 c23 -9 39 -18
37 -20 -2 -3 -24 4 -48 15 -54 24 -45 27 11 5z m100 -44 c22 -11 40 -23 40
-25 0 -5 -79 32 -89 41 -11 10 14 2 49 -16z m-1230 -116 c16 -66 26 -122 22
-126 -4 -4 -8 0 -8 10 0 15 -45 213 -50 220 -1 2 -13 -2 -26 -8 -22 -11 -22
-11 2 9 14 11 26 18 28 16 2 -1 16 -56 32 -121z m742 59 c-40 -2 -103 -2 -140
0 -37 2 -4 3 73 3 77 0 107 -2 67 -3z m-247 -13 c-78 -15 -129 -21 -123 -15 8
8 94 23 133 23 24 0 23 -2 -10 -8z m714 -4 c-7 -7 -141 -45 -134 -38 3 4 30
14 58 24 50 16 85 22 76 14z m-869 -26 c-34 -11 -60 -11 -35 0 11 5 29 8 40 8
16 0 15 -2 -5 -8z m705 0 c25 -11 -1 -11 -35 0 -20 6 -21 8 -5 8 11 0 29 -3
40 -8z m-1345 -104 c0 -2 -8 -10 -17 -17 -16 -13 -17 -12 -4 4 13 16 21 21 21
13z m-60 -59 c0 -1 -39 -41 -87 -87 l-88 -85 85 88 c79 81 90 92 90 84z m170
-152 c-24 -25 -46 -45 -49 -45 -3 0 15 20 39 45 24 25 46 45 49 45 3 0 -15
-20 -39 -45z m-140 -70 c0 -6 -73 -25 -78 -20 -2 2 11 8 29 14 41 11 49 12 49
6z m56 -4 c-6 -9 -46 -22 -46 -15 0 3 10 9 23 14 29 11 29 11 23 1z m-340 -40
c-26 -26 -34 -40 -24 -43 7 -3 0 -7 -15 -10 -28 -5 -27 -4 19 43 27 27 50 49
53 49 3 0 -12 -17 -33 -39z m135 -2 c-36 -10 -67 -17 -69 -15 -5 6 88 34 113
34 11 0 -9 -8 -44 -19z m-84 -25 c-3 -3 -12 -4 -19 -1 -8 3 -5 6 6 6 11 1 17
-2 13 -5z"/>
<path d="M1535 2525 c-201 -27 -400 -78 -547 -140 -119 -51 -243 -119 -243
-134 0 -8 -11 -20 -25 -29 l-25 -14 25 21 c14 11 21 21 15 21 -5 0 -23 -12
-40 -26 -16 -14 -23 -22 -15 -18 10 5 9 0 -4 -14 -21 -25 -36 -31 -16 -7 7 8
8 15 2 15 -12 0 -34 -25 -27 -32 3 -2 -7 -15 -23 -29 l-27 -24 24 28 c49 55 3
25 -63 -42 l-68 -69 28 -115 27 -114 24 27 c13 15 23 32 23 36 -1 5 -9 -1 -20
-14 l-19 -23 -11 42 c-6 22 -9 43 -6 46 2 3 8 -11 11 -31 l7 -36 30 25 c16 14
37 25 46 25 10 -1 4 -7 -13 -15 -40 -18 -21 -18 39 0 53 16 120 61 111 75 -3
5 0 12 6 16 8 5 9 3 4 -6 -5 -8 -3 -11 4 -9 7 3 13 9 13 14 0 14 18 34 41 47
14 7 17 7 13 -1 -9 -14 0 -14 25 0 11 5 17 14 14 19 -3 5 0 12 6 16 8 5 9 3 4
-6 -4 -7 -4 -11 1 -9 5 3 61 30 124 61 261 127 545 189 885 192 130 2 198 6
216 15 14 7 109 37 210 66 183 52 184 53 144 63 -350 93 -669 123 -930 87z
m298 -2 c-24 -2 -62 -2 -85 0 -24 2 -5 4 42 4 47 0 66 -2 43 -4z m-164 -7 c-2
-2 -47 -6 -99 -8 -54 -3 -78 -2 -55 2 42 8 161 13 154 6z m319 -3 c-15 -2 -42
-2 -60 0 -18 2 -6 4 27 4 33 0 48 -2 33 -4z m80 -10 c-10 -2 -26 -2 -35 0 -10
3 -2 5 17 5 19 0 27 -2 18 -5z m-599 -7 c-2 -2 -26 -6 -54 -9 -34 -4 -42 -3
-25 3 25 8 87 13 79 6z m669 -3 c-10 -2 -26 -2 -35 0 -10 3 -2 5 17 5 19 0 27
-2 18 -5z m55 -10 c-7 -2 -19 -2 -25 0 -7 3 -2 5 12 5 14 0 19 -2 13 -5z
m-840 -10 c-7 -2 -19 -2 -25 0 -7 3 -2 5 12 5 14 0 19 -2 13 -5z m1003 -19
c57 -15 103 -29 101 -31 -3 -2 -49 7 -103 21 -55 13 -110 26 -124 29 -23 4
-24 4 -2 6 12 0 70 -11 128 -25z m-1049 10 c-3 -3 -12 -4 -19 -1 -8 3 -5 6 6
6 11 1 17 -2 13 -5z m-57 -14 c-34 -11 -60 -11 -35 0 11 5 29 8 40 8 16 0 15
-2 -5 -8z m-90 -25 c-19 -7 -42 -13 -50 -13 -8 0 1 6 20 13 19 7 42 13 50 13
8 0 -1 -6 -20 -13z m-80 -24 c-8 -5 -26 -11 -40 -15 -21 -5 -20 -3 5 9 32 15
60 20 35 6z m-71 -26 c-9 -8 -79 -35 -79 -30 0 3 15 11 33 19 32 15 54 20 46
11z m-90 -39 c-10 -9 -89 -46 -89 -41 0 6 72 44 84 45 5 0 7 -2 5 -4z m1190
-11 c-15 -8 -46 -17 -70 -20 -42 -5 -42 -5 9 9 29 7 55 16 59 20 3 3 11 6 17
6 6 -1 -1 -7 -15 -15z m-186 -12 c-29 -2 -77 -2 -105 0 -29 2 -6 3 52 3 58 0
81 -1 53 -3z m-180 -10 c-13 -2 -35 -2 -50 0 -16 2 -5 4 22 4 28 0 40 -2 28
-4z m-94 -7 c-2 -2 -31 -6 -64 -9 -37 -3 -51 -2 -35 3 25 8 107 13 99 6z
m-829 -11 c0 -2 -13 -11 -30 -20 -38 -19 -40 -11 -2 9 31 17 32 18 32 11z
m683 -12 c-7 -2 -19 -2 -25 0 -7 3 -2 5 12 5 14 0 19 -2 13 -5z m-46 -9 c-3
-3 -12 -4 -19 -1 -8 3 -5 6 6 6 11 1 17 -2 13 -5z m-48 -8 c-2 -2 -17 -6 -34
-10 -22 -5 -26 -4 -15 4 14 9 59 15 49 6z m-133 -37 c-33 -11 -61 -17 -63 -15
-6 5 86 34 107 34 8 0 -12 -9 -44 -19z m-166 -60 c-126 -53 -126 -53 -118 -45
10 11 181 85 198 85 8 0 -28 -18 -80 -40z m-571 -87 c-24 -26 -46 -47 -48 -45
-5 4 80 93 87 93 3 0 -15 -22 -39 -48z m441 33 c0 -2 -18 -14 -40 -25 -22 -11
-40 -18 -40 -15 0 2 17 13 38 24 42 23 42 23 42 16z m-461 -155 c0 -9 -4 -8
-9 5 -5 11 -9 27 -9 35 0 9 4 8 9 -5 5 -11 9 -27 9 -35z m201 -14 c-14 -14
-38 -27 -55 -30 l-30 -6 32 12 c18 7 40 21 50 31 9 9 20 17 22 17 3 0 -6 -11
-19 -24z"/>
<path d="M5743 2474 c-20 -18 -22 -22 -7 -15 21 10 52 41 41 41 -3 0 -19 -12
-34 -26z"/>
<path d="M5263 2206 l-181 -52 -169 -170 c-92 -93 -167 -173 -165 -177 1 -5
-2 -6 -6 -3 -5 3 -18 -4 -28 -17 -16 -18 -16 -19 -1 -8 29 23 19 7 -15 -25
-18 -16 -24 -19 -14 -6 27 31 5 28 -25 -5 -13 -14 -17 -23 -9 -18 8 5 4 -4 -9
-18 -14 -15 -27 -27 -29 -27 -3 0 3 9 13 20 10 11 14 20 8 20 -13 0 -55 -45
-48 -52 3 -3 -3 -11 -12 -19 -16 -13 -17 -12 -4 4 7 9 9 17 3 17 -12 0 -34
-25 -27 -32 3 -3 -3 -11 -12 -19 -16 -13 -17 -12 -4 4 7 9 9 17 3 17 -12 0
-34 -25 -27 -32 3 -3 -3 -11 -12 -19 -16 -13 -17 -12 -4 4 7 9 9 17 3 17 -11
0 -30 -21 -30 -33 0 -5 -4 -12 -8 -15 -4 -4 -4 -1 1 7 5 9 3 12 -6 9 -8 -3
-14 -10 -14 -16 0 -5 -4 -14 -9 -19 -5 -5 -6 -2 -1 6 5 9 3 12 -6 9 -8 -3 -14
-10 -14 -16 0 -5 -4 -14 -9 -19 -5 -5 -6 -2 -1 6 5 9 3 12 -6 9 -8 -3 -14 -10
-14 -15 0 -6 -4 -15 -9 -20 -5 -5 -6 -3 -2 5 9 15 1 15 -25 1 -11 -5 -16 -15
-13 -21 4 -6 3 -8 -3 -5 -6 4 -57 -15 -114 -42 -183 -86 -335 -121 -529 -121
-179 0 -337 31 -666 129 l-201 60 -92 -26 c-58 -17 -87 -30 -78 -35 7 -5 2 -6
-13 -3 -14 3 -37 1 -50 -5 -24 -10 -24 -10 5 -5 22 4 26 3 15 -5 -8 -5 -29 -7
-47 -4 -17 3 -40 1 -50 -4 -16 -9 -14 -11 12 -17 17 -4 44 -11 60 -16 26 -8
25 -8 -10 -3 -22 3 -53 10 -70 15 -19 7 -39 7 -54 1 -21 -7 -16 -10 35 -16
105 -12 283 -56 554 -138 314 -94 392 -114 525 -133 168 -25 330 -19 475 16
124 30 357 130 346 148 -4 5 -1 13 5 17 8 5 9 3 4 -6 -12 -19 13 -8 80 35 31
19 53 39 50 44 -3 5 9 19 27 31 l33 22 -30 -26 c-16 -14 -26 -26 -22 -26 16 0
67 41 62 50 -3 4 3 14 13 21 15 13 16 12 3 -3 -20 -26 2 -22 25 4 12 13 13 18
4 13 -13 -8 -13 -7 -1 8 15 18 26 23 16 7 -3 -5 -2 -10 3 -10 12 0 33 25 27
32 -3 2 7 15 22 29 l28 24 -20 -24 c-37 -44 3 -17 89 62 51 47 83 83 79 90 -3
7 -2 8 2 4 11 -10 176 153 168 166 -3 6 -2 7 4 4 6 -4 82 69 170 161 159 167
239 253 232 251 -2 -1 -86 -25 -186 -53z m157 31 c0 -1 -33 -34 -72 -72 -71
-68 -71 -68 -13 -7 33 34 55 62 50 63 -6 0 -1 4 10 9 24 11 25 11 25 7z m-80
-31 c-20 -8 -51 -16 -70 -19 -23 -4 -15 0 20 12 62 21 104 27 50 7z m-125 -36
c-11 -5 -27 -9 -35 -9 -9 0 -8 4 5 9 11 5 27 9 35 9 9 0 8 -4 -5 -9z m-70 -20
c-11 -5 -27 -9 -35 -9 -9 0 -8 4 5 9 11 5 27 9 35 9 9 0 8 -4 -5 -9z m-55 -13
c0 -1 -73 -74 -162 -162 l-163 -160 160 163 c148 150 165 167 165 159z m160
-80 c0 -1 -39 -41 -87 -87 l-88 -85 85 88 c79 81 90 92 90 84z m-220 -230 c0
-1 -26 -27 -57 -57 l-58 -55 55 58 c50 53 60 62 60 54z m-200 -190 c0 -1 -24
-25 -52 -52 l-53 -50 50 53 c46 48 55 57 55 49z m-1995 -146 c14 -6 7 -8 -25
-8 -32 0 -39 2 -25 8 11 4 22 8 25 8 3 0 14 -4 25 -8z m-90 -21 c-11 -5 -27
-9 -35 -9 -9 0 -8 4 5 9 11 5 27 9 35 9 9 0 8 -4 -5 -9z m155 0 c18 -12 2 -12
-25 0 -13 6 -15 9 -5 9 8 0 22 -4 30 -9z m-213 -16 c-3 -3 -12 -4 -19 -1 -8 3
-5 6 6 6 11 1 17 -2 13 -5z m278 -4 c13 -6 15 -9 5 -9 -8 0 -22 4 -30 9 -18
12 -2 12 25 0z m70 -20 c13 -5 14 -9 5 -9 -8 0 -24 4 -35 9 -13 5 -14 9 -5 9
8 0 24 -4 35 -9z m1200 0 c-3 -5 -12 -10 -18 -10 -7 0 -6 4 3 10 19 12 23 12
15 0z m-1135 -20 c18 -12 2 -12 -25 0 -13 6 -15 9 -5 9 8 0 22 -4 30 -9z
m1090 0 c-8 -5 -19 -10 -25 -10 -5 0 -3 5 5 10 8 5 20 10 25 10 6 0 3 -5 -5
-10z m-1015 -20 c13 -5 14 -9 5 -9 -8 0 -24 4 -35 9 -13 5 -14 9 -5 9 8 0 24
-4 35 -9z m945 -9 c-8 -5 -26 -11 -40 -15 -21 -5 -20 -3 5 9 32 15 60 20 35 6z
m-1473 -7 c-3 -3 -12 -4 -19 -1 -8 3 -5 6 6 6 11 1 17 -2 13 -5z m598 -4 c13
-5 14 -9 5 -9 -8 0 -24 4 -35 9 -13 5 -14 9 -5 9 8 0 24 -4 35 -9z m-558 -6
c-3 -3 -12 -4 -19 -1 -8 3 -5 6 6 6 11 1 17 -2 13 -5z m68 -14 c25 -11 -1 -11
-35 0 -20 6 -21 8 -5 8 11 0 29 -3 40 -8z m575 0 c20 -6 21 -8 5 -8 -11 0 -31
4 -45 8 -20 6 -21 8 -5 8 11 0 31 -4 45 -8z m705 0 c-11 -5 -27 -9 -35 -9 -9
0 -8 4 5 9 11 5 27 9 35 9 9 0 8 -4 -5 -9z m-1210 -20 c13 -5 14 -9 5 -9 -8 0
-24 4 -35 9 -13 5 -14 9 -5 9 8 0 24 -4 35 -9z m624 -6 c9 -8 -45 -2 -64 6
-14 7 -8 8 20 3 22 -3 42 -7 44 -9z m516 6 c-11 -5 -29 -8 -40 -8 -16 0 -15 2
5 8 34 11 60 11 35 0z m475 -5 c0 -2 -10 -9 -22 -15 -22 -11 -22 -10 -4 4 21
17 26 19 26 11z m-1545 -15 c13 -5 14 -9 5 -9 -8 0 -24 4 -35 9 -13 5 -14 9
-5 9 8 0 24 -4 35 -9z m734 -6 c8 -7 -84 -3 -124 6 -29 6 -17 7 40 3 44 -3 82
-7 84 -9z m226 5 c-22 -4 -58 -7 -80 -7 -39 1 -38 1 10 8 28 4 64 7 80 7 25 1
23 -1 -10 -8z m-895 -19 c18 -12 2 -12 -25 0 -13 6 -15 9 -5 9 8 0 22 -4 30
-9z m1400 -14 c0 -2 -7 -7 -16 -10 -8 -3 -12 -2 -9 4 6 10 25 14 25 6z m-1265
-26 c13 -5 14 -9 5 -9 -8 0 -24 4 -35 9 -13 5 -14 9 -5 9 8 0 24 -4 35 -9z
m65 -20 c18 -12 2 -12 -25 0 -13 6 -15 9 -5 9 8 0 22 -4 30 -9z m1120 6 c0 -2
-7 -7 -16 -10 -8 -3 -12 -2 -9 4 6 10 25 14 25 6z m-60 -30 c-14 -7 -36 -16
-50 -20 -14 -3 -7 3 15 13 45 22 73 27 35 7z m-920 -16 c11 -8 7 -9 -15 -4
-37 8 -45 14 -19 14 10 0 26 -5 34 -10z m75 -20 c13 -5 14 -9 5 -9 -8 0 -24 4
-35 9 -13 5 -14 9 -5 9 8 0 24 -4 35 -9z m745 0 c-8 -5 -19 -10 -25 -10 -5 0
-3 5 5 10 8 5 20 10 25 10 6 0 3 -5 -5 -10z m-650 -20 c20 -6 21 -8 5 -8 -11
0 -31 4 -45 8 -20 6 -21 8 -5 8 11 0 31 -4 45 -8z m599 6 c-2 -2 -17 -6 -34
-10 -22 -5 -26 -4 -15 4 14 9 59 15 49 6z m-440 -32 c8 -7 -63 -2 -94 7 -20 5
-9 6 30 2 33 -3 62 -7 64 -9z m354 9 c-7 -2 -21 -2 -30 0 -10 3 -4 5 12 5 17
0 24 -2 18 -5z m-60 -10 c-7 -2 -19 -2 -25 0 -7 3 -2 5 12 5 14 0 19 -2 13 -5z
m-130 -10 c-24 -2 -62 -2 -85 0 -24 2 -5 4 42 4 47 0 66 -2 43 -4z"/>
<path d="M800 1995 c-7 -8 -8 -15 -2 -15 5 0 15 7 22 15 7 8 8 15 2 15 -5 0
-15 -7 -22 -15z"/>
<path d="M1860 1623 c-246 -25 -513 -100 -715 -202 -71 -36 -130 -71 -130 -78
0 -6 -4 -15 -9 -20 -5 -5 -6 -3 -2 5 13 22 -6 13 -61 -29 -29 -22 -51 -44 -49
-48 3 -4 -7 -19 -22 -32 l-27 -24 24 28 c14 15 20 27 15 27 -14 0 -115 -105
-109 -113 3 -4 2 -5 -2 -2 -4 3 -19 -6 -34 -21 -29 -28 -30 -15 11 -176 12
-48 27 -85 32 -82 5 3 7 13 3 22 -3 9 -3 13 1 9 8 -8 44 21 44 36 0 5 -8 3
-17 -4 -16 -13 -17 -12 -4 3 7 10 17 16 21 13 4 -3 13 2 20 10 7 8 38 22 69
31 56 16 94 40 86 54 -3 4 3 14 13 21 15 13 16 12 3 -3 -7 -10 -9 -18 -3 -18
12 0 34 25 27 32 -3 3 3 11 12 19 16 13 17 12 4 -3 -7 -10 -9 -18 -3 -18 11 0
30 21 30 33 0 5 4 12 8 15 4 4 4 1 -1 -7 -5 -9 -3 -12 6 -9 8 3 14 10 14 16 0
5 4 14 9 19 5 5 6 3 2 -4 -11 -19 -1 -16 59 18 30 17 53 35 52 41 -1 6 5 13
13 15 13 4 13 3 0 -6 -28 -20 -2 -11 87 28 165 72 324 115 553 152 41 6 161
13 265 14 182 2 194 4 285 33 52 18 149 47 215 66 l119 34 -54 16 c-86 26
-337 74 -442 86 -90 9 -337 11 -418 3z m263 -10 c-40 -2 -106 -2 -145 0 -40 1
-8 3 72 3 80 0 112 -2 73 -3z m-235 -10 c-10 -2 -28 -2 -40 0 -13 2 -5 4 17 4
22 1 32 -1 23 -4z m385 0 c-13 -2 -33 -2 -45 0 -13 2 -3 4 22 4 25 0 35 -2 23
-4z m-485 -10 c-10 -2 -26 -2 -35 0 -10 3 -2 5 17 5 19 0 27 -2 18 -5z m580 0
c-10 -2 -28 -2 -40 0 -13 2 -5 4 17 4 22 1 32 -1 23 -4z m-645 -10 c-7 -2 -19
-2 -25 0 -7 3 -2 5 12 5 14 0 19 -2 13 -5z m700 0 c-7 -2 -19 -2 -25 0 -7 3
-2 5 12 5 14 0 19 -2 13 -5z m-754 -7 c-2 -2 -22 -6 -44 -9 -28 -5 -34 -4 -20
3 19 8 73 14 64 6z m846 -6 c14 -7 8 -8 -20 -3 -22 3 -42 7 -44 9 -9 8 45 2
64 -6z m-955 -20 c-34 -11 -60 -11 -35 0 11 5 29 8 40 8 16 0 15 -2 -5 -8z
m1045 0 c25 -11 -1 -11 -35 0 -20 6 -21 8 -5 8 11 0 29 -3 40 -8z m-1130 -20
c-27 -12 -43 -12 -25 0 8 5 22 9 30 9 10 0 8 -3 -5 -9z m1220 -5 c17 -7 25
-14 18 -14 -6 -1 -20 -4 -30 -7 -14 -5 -15 -4 -4 4 12 8 7 13 -20 20 -19 6
-25 10 -14 11 11 0 34 -6 50 -14z m-1280 -15 c-11 -5 -27 -9 -35 -9 -9 0 -8 4
5 9 11 5 27 9 35 9 9 0 8 -4 -5 -9z m-65 -20 c-8 -5 -19 -10 -25 -10 -5 0 -3
5 5 10 8 5 20 10 25 10 6 0 3 -5 -5 -10z m-50 -20 c-8 -5 -22 -9 -30 -9 -10 0
-8 3 5 9 27 12 43 12 25 0z m-90 -34 c0 -2 -7 -7 -16 -10 -8 -3 -12 -2 -9 4 6
10 25 14 25 6z m1175 -21 c-16 -8 -37 -14 -45 -14 -8 0 1 7 20 14 46 18 64 17
25 0z m-1216 1 c-10 -9 -69 -36 -69 -32 0 7 52 35 64 36 5 0 7 -2 5 -4z m1024
-13 c-23 -2 -64 -2 -90 0 -26 2 -7 3 42 3 50 0 71 -1 48 -3z m-194 -7 c-2 -2
-35 -6 -74 -9 -42 -3 -58 -2 -40 3 30 8 122 13 114 6z m-914 -26 c-3 -5 -12
-10 -18 -10 -7 0 -6 4 3 10 19 12 23 12 15 0z m744 6 c-2 -2 -22 -6 -44 -9
-28 -5 -34 -4 -20 3 19 8 73 14 64 6z m-106 -23 c-7 -2 -19 -2 -25 0 -7 3 -2
5 12 5 14 0 19 -2 13 -5z m-46 -9 c-3 -3 -12 -4 -19 -1 -8 3 -5 6 6 6 11 1 17
-2 13 -5z m-40 -10 c-3 -3 -12 -4 -19 -1 -8 3 -5 6 6 6 11 1 17 -2 13 -5z
m-82 -24 c-11 -5 -27 -9 -35 -9 -9 0 -8 4 5 9 11 5 27 9 35 9 9 0 8 -4 -5 -9z
m-575 -3 c0 -2 -15 -13 -32 -26 l-33 -22 28 25 c26 24 37 31 37 23z m494 -21
c-50 -22 -82 -27 -39 -7 22 11 47 20 55 20 8 0 1 -6 -16 -13z m-94 -36 c-8 -5
-19 -10 -25 -10 -5 0 -3 5 5 10 8 5 20 10 25 10 6 0 3 -5 -5 -10z m-40 -14 c0
-2 -7 -7 -16 -10 -8 -3 -12 -2 -9 4 6 10 25 14 25 6z m-40 -20 c0 -2 -7 -7
-16 -10 -8 -3 -12 -2 -9 4 6 10 25 14 25 6z m-470 -29 c0 -2 -10 -12 -22 -23
l-23 -19 19 23 c18 21 26 27 26 19z m350 -32 c0 -2 -10 -9 -22 -15 -22 -11
-22 -10 -4 4 21 17 26 19 26 11z m-443 -97 c-3 -7 -5 -2 -5 12 0 14 2 19 5 13
2 -7 2 -19 0 -25z m238 -48 c-3 -5 -12 -10 -18 -10 -7 0 -6 4 3 10 19 12 23
12 15 0z m-218 -32 c-3 -8 -6 -5 -6 6 -1 11 2 17 5 13 3 -3 4 -12 1 -19z m22
-68 c0 -9 -4 -8 -9 5 -5 11 -9 27 -9 35 0 9 4 8 9 -5 5 -11 9 -27 9 -35z"/>
</g>
</svg>
